<mxfile host="app.diagrams.net" modified="2023-11-20T14:02:13.488Z" agent="Mozilla/5.0 (Windows NT 10.0; Win64; x64) AppleWebKit/537.36 (KHTML, like Gecko) Chrome/119.0.0.0 Safari/537.36" etag="_MStOOUPY2-cnvoSb_cO" version="22.1.3" type="github">
  <diagram id="R2lEEEUBdFMjLlhIrx00" name="Page-1">
    <mxGraphModel dx="1706" dy="478" grid="1" gridSize="10" guides="1" tooltips="1" connect="1" arrows="1" fold="1" page="1" pageScale="1" pageWidth="850" pageHeight="1100" math="0" shadow="0" extFonts="Permanent Marker^https://fonts.googleapis.com/css?family=Permanent+Marker">
      <root>
        <mxCell id="0" />
        <mxCell id="1" parent="0" />
        <mxCell id="C-vyLk0tnHw3VtMMgP7b-1" value="" style="edgeStyle=entityRelationEdgeStyle;endArrow=ERoneToMany;startArrow=ERoneToMany;endFill=0;startFill=0;" parent="1" source="C-vyLk0tnHw3VtMMgP7b-24" target="C-vyLk0tnHw3VtMMgP7b-6" edge="1">
          <mxGeometry width="100" height="100" relative="1" as="geometry">
            <mxPoint x="340" y="720" as="sourcePoint" />
            <mxPoint x="440" y="620" as="targetPoint" />
          </mxGeometry>
        </mxCell>
        <mxCell id="C-vyLk0tnHw3VtMMgP7b-2" value="Asset" style="shape=table;startSize=30;container=1;collapsible=1;childLayout=tableLayout;fixedRows=1;rowLines=0;fontStyle=1;align=center;resizeLast=1;" parent="1" vertex="1">
          <mxGeometry x="450" y="120" width="250" height="210" as="geometry" />
        </mxCell>
        <mxCell id="C-vyLk0tnHw3VtMMgP7b-3" value="" style="shape=partialRectangle;collapsible=0;dropTarget=0;pointerEvents=0;fillColor=none;points=[[0,0.5],[1,0.5]];portConstraint=eastwest;top=0;left=0;right=0;bottom=1;" parent="C-vyLk0tnHw3VtMMgP7b-2" vertex="1">
          <mxGeometry y="30" width="250" height="30" as="geometry" />
        </mxCell>
        <mxCell id="C-vyLk0tnHw3VtMMgP7b-4" value="PK" style="shape=partialRectangle;overflow=hidden;connectable=0;fillColor=none;top=0;left=0;bottom=0;right=0;fontStyle=1;" parent="C-vyLk0tnHw3VtMMgP7b-3" vertex="1">
          <mxGeometry width="30" height="30" as="geometry">
            <mxRectangle width="30" height="30" as="alternateBounds" />
          </mxGeometry>
        </mxCell>
        <mxCell id="C-vyLk0tnHw3VtMMgP7b-5" value="AssetID" style="shape=partialRectangle;overflow=hidden;connectable=0;fillColor=none;top=0;left=0;bottom=0;right=0;align=left;spacingLeft=6;fontStyle=5;" parent="C-vyLk0tnHw3VtMMgP7b-3" vertex="1">
          <mxGeometry x="30" width="220" height="30" as="geometry">
            <mxRectangle width="220" height="30" as="alternateBounds" />
          </mxGeometry>
        </mxCell>
        <mxCell id="C-vyLk0tnHw3VtMMgP7b-6" value="" style="shape=partialRectangle;collapsible=0;dropTarget=0;pointerEvents=0;fillColor=none;points=[[0,0.5],[1,0.5]];portConstraint=eastwest;top=0;left=0;right=0;bottom=0;" parent="C-vyLk0tnHw3VtMMgP7b-2" vertex="1">
          <mxGeometry y="60" width="250" height="30" as="geometry" />
        </mxCell>
        <mxCell id="C-vyLk0tnHw3VtMMgP7b-7" value="FK1" style="shape=partialRectangle;overflow=hidden;connectable=0;fillColor=none;top=0;left=0;bottom=0;right=0;" parent="C-vyLk0tnHw3VtMMgP7b-6" vertex="1">
          <mxGeometry width="30" height="30" as="geometry">
            <mxRectangle width="30" height="30" as="alternateBounds" />
          </mxGeometry>
        </mxCell>
        <mxCell id="C-vyLk0tnHw3VtMMgP7b-8" value="FacilityID" style="shape=partialRectangle;overflow=hidden;connectable=0;fillColor=none;top=0;left=0;bottom=0;right=0;align=left;spacingLeft=6;" parent="C-vyLk0tnHw3VtMMgP7b-6" vertex="1">
          <mxGeometry x="30" width="220" height="30" as="geometry">
            <mxRectangle width="220" height="30" as="alternateBounds" />
          </mxGeometry>
        </mxCell>
        <mxCell id="C-vyLk0tnHw3VtMMgP7b-9" value="" style="shape=partialRectangle;collapsible=0;dropTarget=0;pointerEvents=0;fillColor=none;points=[[0,0.5],[1,0.5]];portConstraint=eastwest;top=0;left=0;right=0;bottom=0;" parent="C-vyLk0tnHw3VtMMgP7b-2" vertex="1">
          <mxGeometry y="90" width="250" height="30" as="geometry" />
        </mxCell>
        <mxCell id="C-vyLk0tnHw3VtMMgP7b-10" value="" style="shape=partialRectangle;overflow=hidden;connectable=0;fillColor=none;top=0;left=0;bottom=0;right=0;" parent="C-vyLk0tnHw3VtMMgP7b-9" vertex="1">
          <mxGeometry width="30" height="30" as="geometry">
            <mxRectangle width="30" height="30" as="alternateBounds" />
          </mxGeometry>
        </mxCell>
        <mxCell id="C-vyLk0tnHw3VtMMgP7b-11" value="Name" style="shape=partialRectangle;overflow=hidden;connectable=0;fillColor=none;top=0;left=0;bottom=0;right=0;align=left;spacingLeft=6;" parent="C-vyLk0tnHw3VtMMgP7b-9" vertex="1">
          <mxGeometry x="30" width="220" height="30" as="geometry">
            <mxRectangle width="220" height="30" as="alternateBounds" />
          </mxGeometry>
        </mxCell>
        <mxCell id="C-vyLk0tnHw3VtMMgP7b-23" value="Facility" style="shape=table;startSize=30;container=1;collapsible=1;childLayout=tableLayout;fixedRows=1;rowLines=0;fontStyle=1;align=center;resizeLast=1;" parent="1" vertex="1">
          <mxGeometry x="120" y="120" width="260" height="200" as="geometry" />
        </mxCell>
        <mxCell id="C-vyLk0tnHw3VtMMgP7b-24" value="" style="shape=partialRectangle;collapsible=0;dropTarget=0;pointerEvents=0;fillColor=none;points=[[0,0.5],[1,0.5]];portConstraint=eastwest;top=0;left=0;right=0;bottom=1;" parent="C-vyLk0tnHw3VtMMgP7b-23" vertex="1">
          <mxGeometry y="30" width="260" height="50" as="geometry" />
        </mxCell>
        <mxCell id="C-vyLk0tnHw3VtMMgP7b-25" value="PK" style="shape=partialRectangle;overflow=hidden;connectable=0;fillColor=none;top=0;left=0;bottom=0;right=0;fontStyle=1;" parent="C-vyLk0tnHw3VtMMgP7b-24" vertex="1">
          <mxGeometry width="30" height="50" as="geometry">
            <mxRectangle width="30" height="50" as="alternateBounds" />
          </mxGeometry>
        </mxCell>
        <mxCell id="C-vyLk0tnHw3VtMMgP7b-26" value="FacilityID" style="shape=partialRectangle;overflow=hidden;connectable=0;fillColor=none;top=0;left=0;bottom=0;right=0;align=left;spacingLeft=6;fontStyle=5;" parent="C-vyLk0tnHw3VtMMgP7b-24" vertex="1">
          <mxGeometry x="30" width="230" height="50" as="geometry">
            <mxRectangle width="230" height="50" as="alternateBounds" />
          </mxGeometry>
        </mxCell>
        <mxCell id="C-vyLk0tnHw3VtMMgP7b-27" value="" style="shape=partialRectangle;collapsible=0;dropTarget=0;pointerEvents=0;fillColor=none;points=[[0,0.5],[1,0.5]];portConstraint=eastwest;top=0;left=0;right=0;bottom=0;" parent="C-vyLk0tnHw3VtMMgP7b-23" vertex="1">
          <mxGeometry y="80" width="260" height="30" as="geometry" />
        </mxCell>
        <mxCell id="C-vyLk0tnHw3VtMMgP7b-28" value="" style="shape=partialRectangle;overflow=hidden;connectable=0;fillColor=none;top=0;left=0;bottom=0;right=0;" parent="C-vyLk0tnHw3VtMMgP7b-27" vertex="1">
          <mxGeometry width="30" height="30" as="geometry">
            <mxRectangle width="30" height="30" as="alternateBounds" />
          </mxGeometry>
        </mxCell>
        <mxCell id="C-vyLk0tnHw3VtMMgP7b-29" value="" style="shape=partialRectangle;overflow=hidden;connectable=0;fillColor=none;top=0;left=0;bottom=0;right=0;align=left;spacingLeft=6;" parent="C-vyLk0tnHw3VtMMgP7b-27" vertex="1">
          <mxGeometry x="30" width="230" height="30" as="geometry">
            <mxRectangle width="230" height="30" as="alternateBounds" />
          </mxGeometry>
        </mxCell>
        <mxCell id="hQxpPtHJT12RlVAMDk6g-2" value="Location" style="shape=partialRectangle;overflow=hidden;connectable=0;fillColor=none;top=0;left=0;bottom=0;right=0;align=left;spacingLeft=6;" vertex="1" parent="1">
          <mxGeometry x="150" y="230" width="220" height="30" as="geometry">
            <mxRectangle width="220" height="30" as="alternateBounds" />
          </mxGeometry>
        </mxCell>
        <mxCell id="hQxpPtHJT12RlVAMDk6g-3" value="Size" style="shape=partialRectangle;overflow=hidden;connectable=0;fillColor=none;top=0;left=0;bottom=0;right=0;align=left;spacingLeft=6;" vertex="1" parent="1">
          <mxGeometry x="150" y="260" width="220" height="30" as="geometry">
            <mxRectangle width="220" height="30" as="alternateBounds" />
          </mxGeometry>
        </mxCell>
        <mxCell id="hQxpPtHJT12RlVAMDk6g-4" value="" style="endArrow=none;html=1;rounded=0;" edge="1" parent="1">
          <mxGeometry width="50" height="50" relative="1" as="geometry">
            <mxPoint x="150" y="300" as="sourcePoint" />
            <mxPoint x="150" y="210" as="targetPoint" />
          </mxGeometry>
        </mxCell>
        <mxCell id="hQxpPtHJT12RlVAMDk6g-9" value="Type" style="shape=partialRectangle;overflow=hidden;connectable=0;fillColor=none;top=0;left=0;bottom=0;right=0;align=left;spacingLeft=6;" vertex="1" parent="1">
          <mxGeometry x="480" y="240" width="220" height="30" as="geometry">
            <mxRectangle width="220" height="30" as="alternateBounds" />
          </mxGeometry>
        </mxCell>
        <mxCell id="hQxpPtHJT12RlVAMDk6g-10" value="Maintenance Schedule" style="shape=partialRectangle;overflow=hidden;connectable=0;fillColor=none;top=0;left=0;bottom=0;right=0;align=left;spacingLeft=6;" vertex="1" parent="1">
          <mxGeometry x="480" y="300" width="220" height="30" as="geometry">
            <mxRectangle width="220" height="30" as="alternateBounds" />
          </mxGeometry>
        </mxCell>
        <mxCell id="hQxpPtHJT12RlVAMDk6g-11" value="Condition" style="shape=partialRectangle;overflow=hidden;connectable=0;fillColor=none;top=0;left=0;bottom=0;right=0;align=left;spacingLeft=6;" vertex="1" parent="1">
          <mxGeometry x="480" y="270" width="220" height="30" as="geometry">
            <mxRectangle width="220" height="30" as="alternateBounds" />
          </mxGeometry>
        </mxCell>
        <mxCell id="hQxpPtHJT12RlVAMDk6g-12" value="" style="endArrow=none;html=1;rounded=0;" edge="1" parent="1">
          <mxGeometry width="50" height="50" relative="1" as="geometry">
            <mxPoint x="480" y="330" as="sourcePoint" />
            <mxPoint x="480" y="240" as="targetPoint" />
          </mxGeometry>
        </mxCell>
        <mxCell id="hQxpPtHJT12RlVAMDk6g-45" value="" style="group" vertex="1" connectable="0" parent="1">
          <mxGeometry x="820" y="110" width="310" height="210" as="geometry" />
        </mxCell>
        <mxCell id="hQxpPtHJT12RlVAMDk6g-24" value="Maintenance" style="shape=table;startSize=30;container=1;collapsible=1;childLayout=tableLayout;fixedRows=1;rowLines=0;fontStyle=1;align=center;resizeLast=1;" vertex="1" parent="hQxpPtHJT12RlVAMDk6g-45">
          <mxGeometry width="310" height="210" as="geometry" />
        </mxCell>
        <mxCell id="hQxpPtHJT12RlVAMDk6g-25" value="" style="shape=partialRectangle;collapsible=0;dropTarget=0;pointerEvents=0;fillColor=none;points=[[0,0.5],[1,0.5]];portConstraint=eastwest;top=0;left=0;right=0;bottom=1;" vertex="1" parent="hQxpPtHJT12RlVAMDk6g-24">
          <mxGeometry y="30" width="310" height="30" as="geometry" />
        </mxCell>
        <mxCell id="hQxpPtHJT12RlVAMDk6g-26" value="PK" style="shape=partialRectangle;overflow=hidden;connectable=0;fillColor=none;top=0;left=0;bottom=0;right=0;fontStyle=1;" vertex="1" parent="hQxpPtHJT12RlVAMDk6g-25">
          <mxGeometry width="50" height="30" as="geometry">
            <mxRectangle width="50" height="30" as="alternateBounds" />
          </mxGeometry>
        </mxCell>
        <mxCell id="hQxpPtHJT12RlVAMDk6g-27" value="MaintenanceID" style="shape=partialRectangle;overflow=hidden;connectable=0;fillColor=none;top=0;left=0;bottom=0;right=0;align=left;spacingLeft=6;fontStyle=5;" vertex="1" parent="hQxpPtHJT12RlVAMDk6g-25">
          <mxGeometry x="50" width="260" height="30" as="geometry">
            <mxRectangle width="260" height="30" as="alternateBounds" />
          </mxGeometry>
        </mxCell>
        <mxCell id="hQxpPtHJT12RlVAMDk6g-28" value="" style="shape=partialRectangle;collapsible=0;dropTarget=0;pointerEvents=0;fillColor=none;points=[[0,0.5],[1,0.5]];portConstraint=eastwest;top=0;left=0;right=0;bottom=0;" vertex="1" parent="hQxpPtHJT12RlVAMDk6g-24">
          <mxGeometry y="60" width="310" height="30" as="geometry" />
        </mxCell>
        <mxCell id="hQxpPtHJT12RlVAMDk6g-29" value="FK1" style="shape=partialRectangle;overflow=hidden;connectable=0;fillColor=none;top=0;left=0;bottom=0;right=0;" vertex="1" parent="hQxpPtHJT12RlVAMDk6g-28">
          <mxGeometry width="50" height="30" as="geometry">
            <mxRectangle width="50" height="30" as="alternateBounds" />
          </mxGeometry>
        </mxCell>
        <mxCell id="hQxpPtHJT12RlVAMDk6g-30" value="AssetID " style="shape=partialRectangle;overflow=hidden;connectable=0;fillColor=none;top=0;left=0;bottom=0;right=0;align=left;spacingLeft=6;" vertex="1" parent="hQxpPtHJT12RlVAMDk6g-28">
          <mxGeometry x="50" width="260" height="30" as="geometry">
            <mxRectangle width="260" height="30" as="alternateBounds" />
          </mxGeometry>
        </mxCell>
        <mxCell id="hQxpPtHJT12RlVAMDk6g-31" value="" style="shape=partialRectangle;collapsible=0;dropTarget=0;pointerEvents=0;fillColor=none;points=[[0,0.5],[1,0.5]];portConstraint=eastwest;top=0;left=0;right=0;bottom=0;" vertex="1" parent="hQxpPtHJT12RlVAMDk6g-24">
          <mxGeometry y="90" width="310" height="30" as="geometry" />
        </mxCell>
        <mxCell id="hQxpPtHJT12RlVAMDk6g-32" value="PK,FK" style="shape=partialRectangle;overflow=hidden;connectable=0;fillColor=none;top=0;left=0;bottom=0;right=0;" vertex="1" parent="hQxpPtHJT12RlVAMDk6g-31">
          <mxGeometry width="50" height="30" as="geometry">
            <mxRectangle width="50" height="30" as="alternateBounds" />
          </mxGeometry>
        </mxCell>
        <mxCell id="hQxpPtHJT12RlVAMDk6g-33" value="Type (Preventive, Corrective, Predictive, etc.)" style="shape=partialRectangle;overflow=hidden;connectable=0;fillColor=none;top=0;left=0;bottom=0;right=0;align=left;spacingLeft=6;" vertex="1" parent="hQxpPtHJT12RlVAMDk6g-31">
          <mxGeometry x="50" width="260" height="30" as="geometry">
            <mxRectangle width="260" height="30" as="alternateBounds" />
          </mxGeometry>
        </mxCell>
        <mxCell id="hQxpPtHJT12RlVAMDk6g-34" value="" style="shape=partialRectangle;collapsible=0;dropTarget=0;pointerEvents=0;fillColor=none;points=[[0,0.5],[1,0.5]];portConstraint=eastwest;top=0;left=0;right=0;bottom=0;" vertex="1" parent="hQxpPtHJT12RlVAMDk6g-45">
          <mxGeometry x="20" y="120" width="250" height="30" as="geometry" />
        </mxCell>
        <mxCell id="hQxpPtHJT12RlVAMDk6g-35" value="" style="shape=partialRectangle;overflow=hidden;connectable=0;fillColor=none;top=0;left=0;bottom=0;right=0;" vertex="1" parent="hQxpPtHJT12RlVAMDk6g-34">
          <mxGeometry width="30" height="30" as="geometry">
            <mxRectangle width="30" height="30" as="alternateBounds" />
          </mxGeometry>
        </mxCell>
        <mxCell id="hQxpPtHJT12RlVAMDk6g-36" value="ScheduleDate" style="shape=partialRectangle;overflow=hidden;connectable=0;fillColor=none;top=0;left=0;bottom=0;right=0;align=left;spacingLeft=6;" vertex="1" parent="hQxpPtHJT12RlVAMDk6g-34">
          <mxGeometry x="30" width="220" height="30" as="geometry">
            <mxRectangle width="220" height="30" as="alternateBounds" />
          </mxGeometry>
        </mxCell>
        <mxCell id="hQxpPtHJT12RlVAMDk6g-37" value="" style="shape=partialRectangle;collapsible=0;dropTarget=0;pointerEvents=0;fillColor=none;points=[[0,0.5],[1,0.5]];portConstraint=eastwest;top=0;left=0;right=0;bottom=0;" vertex="1" parent="hQxpPtHJT12RlVAMDk6g-45">
          <mxGeometry x="20" y="180" width="250" height="30" as="geometry" />
        </mxCell>
        <mxCell id="hQxpPtHJT12RlVAMDk6g-38" value="" style="shape=partialRectangle;overflow=hidden;connectable=0;fillColor=none;top=0;left=0;bottom=0;right=0;" vertex="1" parent="hQxpPtHJT12RlVAMDk6g-37">
          <mxGeometry width="30" height="30" as="geometry">
            <mxRectangle width="30" height="30" as="alternateBounds" />
          </mxGeometry>
        </mxCell>
        <mxCell id="hQxpPtHJT12RlVAMDk6g-39" value="Cost" style="shape=partialRectangle;overflow=hidden;connectable=0;fillColor=none;top=0;left=0;bottom=0;right=0;align=left;spacingLeft=6;" vertex="1" parent="hQxpPtHJT12RlVAMDk6g-37">
          <mxGeometry x="30" width="220" height="30" as="geometry">
            <mxRectangle width="220" height="30" as="alternateBounds" />
          </mxGeometry>
        </mxCell>
        <mxCell id="hQxpPtHJT12RlVAMDk6g-40" value="" style="shape=partialRectangle;collapsible=0;dropTarget=0;pointerEvents=0;fillColor=none;points=[[0,0.5],[1,0.5]];portConstraint=eastwest;top=0;left=0;right=0;bottom=0;" vertex="1" parent="hQxpPtHJT12RlVAMDk6g-45">
          <mxGeometry x="20" y="150" width="250" height="30" as="geometry" />
        </mxCell>
        <mxCell id="hQxpPtHJT12RlVAMDk6g-41" value="" style="shape=partialRectangle;overflow=hidden;connectable=0;fillColor=none;top=0;left=0;bottom=0;right=0;" vertex="1" parent="hQxpPtHJT12RlVAMDk6g-40">
          <mxGeometry width="30" height="30" as="geometry">
            <mxRectangle width="30" height="30" as="alternateBounds" />
          </mxGeometry>
        </mxCell>
        <mxCell id="hQxpPtHJT12RlVAMDk6g-42" value="CompletionDate" style="shape=partialRectangle;overflow=hidden;connectable=0;fillColor=none;top=0;left=0;bottom=0;right=0;align=left;spacingLeft=6;" vertex="1" parent="hQxpPtHJT12RlVAMDk6g-40">
          <mxGeometry x="30" width="220" height="30" as="geometry">
            <mxRectangle width="220" height="30" as="alternateBounds" />
          </mxGeometry>
        </mxCell>
        <mxCell id="hQxpPtHJT12RlVAMDk6g-44" value="" style="endArrow=none;html=1;rounded=0;exitX=0.124;exitY=1.033;exitDx=0;exitDy=0;exitPerimeter=0;" edge="1" parent="hQxpPtHJT12RlVAMDk6g-45">
          <mxGeometry width="50" height="50" relative="1" as="geometry">
            <mxPoint x="51" y="210.4999999999999" as="sourcePoint" />
            <mxPoint x="50" y="119.51" as="targetPoint" />
          </mxGeometry>
        </mxCell>
        <mxCell id="hQxpPtHJT12RlVAMDk6g-47" value="" style="group" vertex="1" connectable="0" parent="1">
          <mxGeometry x="120" y="360" width="320" height="210" as="geometry" />
        </mxCell>
        <mxCell id="hQxpPtHJT12RlVAMDk6g-48" value="WorkOrder" style="shape=table;startSize=30;container=1;collapsible=1;childLayout=tableLayout;fixedRows=1;rowLines=0;fontStyle=1;align=center;resizeLast=1;" vertex="1" parent="hQxpPtHJT12RlVAMDk6g-47">
          <mxGeometry width="320" height="210" as="geometry" />
        </mxCell>
        <mxCell id="hQxpPtHJT12RlVAMDk6g-49" value="" style="shape=partialRectangle;collapsible=0;dropTarget=0;pointerEvents=0;fillColor=none;points=[[0,0.5],[1,0.5]];portConstraint=eastwest;top=0;left=0;right=0;bottom=1;" vertex="1" parent="hQxpPtHJT12RlVAMDk6g-48">
          <mxGeometry y="30" width="320" height="30" as="geometry" />
        </mxCell>
        <mxCell id="hQxpPtHJT12RlVAMDk6g-50" value="PK" style="shape=partialRectangle;overflow=hidden;connectable=0;fillColor=none;top=0;left=0;bottom=0;right=0;fontStyle=1;" vertex="1" parent="hQxpPtHJT12RlVAMDk6g-49">
          <mxGeometry width="30" height="30" as="geometry">
            <mxRectangle width="30" height="30" as="alternateBounds" />
          </mxGeometry>
        </mxCell>
        <mxCell id="hQxpPtHJT12RlVAMDk6g-51" value="WorkOrderID" style="shape=partialRectangle;overflow=hidden;connectable=0;fillColor=none;top=0;left=0;bottom=0;right=0;align=left;spacingLeft=6;fontStyle=5;" vertex="1" parent="hQxpPtHJT12RlVAMDk6g-49">
          <mxGeometry x="30" width="290" height="30" as="geometry">
            <mxRectangle width="290" height="30" as="alternateBounds" />
          </mxGeometry>
        </mxCell>
        <mxCell id="hQxpPtHJT12RlVAMDk6g-52" value="" style="shape=partialRectangle;collapsible=0;dropTarget=0;pointerEvents=0;fillColor=none;points=[[0,0.5],[1,0.5]];portConstraint=eastwest;top=0;left=0;right=0;bottom=0;" vertex="1" parent="hQxpPtHJT12RlVAMDk6g-48">
          <mxGeometry y="60" width="320" height="30" as="geometry" />
        </mxCell>
        <mxCell id="hQxpPtHJT12RlVAMDk6g-53" value="FK1" style="shape=partialRectangle;overflow=hidden;connectable=0;fillColor=none;top=0;left=0;bottom=0;right=0;" vertex="1" parent="hQxpPtHJT12RlVAMDk6g-52">
          <mxGeometry width="30" height="30" as="geometry">
            <mxRectangle width="30" height="30" as="alternateBounds" />
          </mxGeometry>
        </mxCell>
        <mxCell id="hQxpPtHJT12RlVAMDk6g-54" value="FacilityID (Foreign Key referencing Facility)" style="shape=partialRectangle;overflow=hidden;connectable=0;fillColor=none;top=0;left=0;bottom=0;right=0;align=left;spacingLeft=6;" vertex="1" parent="hQxpPtHJT12RlVAMDk6g-52">
          <mxGeometry x="30" width="290" height="30" as="geometry">
            <mxRectangle width="290" height="30" as="alternateBounds" />
          </mxGeometry>
        </mxCell>
        <mxCell id="hQxpPtHJT12RlVAMDk6g-55" value="" style="shape=partialRectangle;collapsible=0;dropTarget=0;pointerEvents=0;fillColor=none;points=[[0,0.5],[1,0.5]];portConstraint=eastwest;top=0;left=0;right=0;bottom=0;" vertex="1" parent="hQxpPtHJT12RlVAMDk6g-48">
          <mxGeometry y="90" width="320" height="30" as="geometry" />
        </mxCell>
        <mxCell id="hQxpPtHJT12RlVAMDk6g-56" value="FK2" style="shape=partialRectangle;overflow=hidden;connectable=0;fillColor=none;top=0;left=0;bottom=0;right=0;" vertex="1" parent="hQxpPtHJT12RlVAMDk6g-55">
          <mxGeometry width="30" height="30" as="geometry">
            <mxRectangle width="30" height="30" as="alternateBounds" />
          </mxGeometry>
        </mxCell>
        <mxCell id="hQxpPtHJT12RlVAMDk6g-57" value=" AssetID (Foreign Key referencing Asset)" style="shape=partialRectangle;overflow=hidden;connectable=0;fillColor=none;top=0;left=0;bottom=0;right=0;align=left;spacingLeft=6;" vertex="1" parent="hQxpPtHJT12RlVAMDk6g-55">
          <mxGeometry x="30" width="290" height="30" as="geometry">
            <mxRectangle width="290" height="30" as="alternateBounds" />
          </mxGeometry>
        </mxCell>
        <mxCell id="hQxpPtHJT12RlVAMDk6g-58" value="" style="shape=partialRectangle;collapsible=0;dropTarget=0;pointerEvents=0;fillColor=none;points=[[0,0.5],[1,0.5]];portConstraint=eastwest;top=0;left=0;right=0;bottom=0;" vertex="1" parent="hQxpPtHJT12RlVAMDk6g-47">
          <mxGeometry y="120" width="285.71428571428567" height="30" as="geometry" />
        </mxCell>
        <mxCell id="hQxpPtHJT12RlVAMDk6g-59" value="" style="shape=partialRectangle;overflow=hidden;connectable=0;fillColor=none;top=0;left=0;bottom=0;right=0;" vertex="1" parent="hQxpPtHJT12RlVAMDk6g-58">
          <mxGeometry width="34.28571428571428" height="30" as="geometry">
            <mxRectangle width="30" height="30" as="alternateBounds" />
          </mxGeometry>
        </mxCell>
        <mxCell id="hQxpPtHJT12RlVAMDk6g-60" value="Description" style="shape=partialRectangle;overflow=hidden;connectable=0;fillColor=none;top=0;left=0;bottom=0;right=0;align=left;spacingLeft=6;" vertex="1" parent="hQxpPtHJT12RlVAMDk6g-58">
          <mxGeometry x="34.28571428571428" width="251.42857142857142" height="30" as="geometry">
            <mxRectangle width="220" height="30" as="alternateBounds" />
          </mxGeometry>
        </mxCell>
        <mxCell id="hQxpPtHJT12RlVAMDk6g-61" value="" style="shape=partialRectangle;collapsible=0;dropTarget=0;pointerEvents=0;fillColor=none;points=[[0,0.5],[1,0.5]];portConstraint=eastwest;top=0;left=0;right=0;bottom=0;" vertex="1" parent="hQxpPtHJT12RlVAMDk6g-47">
          <mxGeometry y="180" width="285.71428571428567" height="30" as="geometry" />
        </mxCell>
        <mxCell id="hQxpPtHJT12RlVAMDk6g-62" value="" style="shape=partialRectangle;overflow=hidden;connectable=0;fillColor=none;top=0;left=0;bottom=0;right=0;" vertex="1" parent="hQxpPtHJT12RlVAMDk6g-61">
          <mxGeometry width="34.28571428571428" height="30" as="geometry">
            <mxRectangle width="30" height="30" as="alternateBounds" />
          </mxGeometry>
        </mxCell>
        <mxCell id="hQxpPtHJT12RlVAMDk6g-63" value="Status (Open, In Progress, Completed, etc.)&#xa;&#xa;" style="shape=partialRectangle;overflow=hidden;connectable=0;fillColor=none;top=0;left=0;bottom=0;right=0;align=left;spacingLeft=6;" vertex="1" parent="hQxpPtHJT12RlVAMDk6g-61">
          <mxGeometry x="34.28571428571428" width="251.42857142857142" height="30" as="geometry">
            <mxRectangle width="220" height="30" as="alternateBounds" />
          </mxGeometry>
        </mxCell>
        <mxCell id="hQxpPtHJT12RlVAMDk6g-64" value="" style="shape=partialRectangle;collapsible=0;dropTarget=0;pointerEvents=0;fillColor=none;points=[[0,0.5],[1,0.5]];portConstraint=eastwest;top=0;left=0;right=0;bottom=0;" vertex="1" parent="hQxpPtHJT12RlVAMDk6g-47">
          <mxGeometry y="150" width="285.71428571428567" height="30" as="geometry" />
        </mxCell>
        <mxCell id="hQxpPtHJT12RlVAMDk6g-65" value="" style="shape=partialRectangle;overflow=hidden;connectable=0;fillColor=none;top=0;left=0;bottom=0;right=0;" vertex="1" parent="hQxpPtHJT12RlVAMDk6g-64">
          <mxGeometry width="34.28571428571428" height="30" as="geometry">
            <mxRectangle width="30" height="30" as="alternateBounds" />
          </mxGeometry>
        </mxCell>
        <mxCell id="hQxpPtHJT12RlVAMDk6g-66" value="AssignedTo" style="shape=partialRectangle;overflow=hidden;connectable=0;fillColor=none;top=0;left=0;bottom=0;right=0;align=left;spacingLeft=6;" vertex="1" parent="hQxpPtHJT12RlVAMDk6g-64">
          <mxGeometry x="34.28571428571428" width="251.42857142857142" height="30" as="geometry">
            <mxRectangle width="220" height="30" as="alternateBounds" />
          </mxGeometry>
        </mxCell>
        <mxCell id="hQxpPtHJT12RlVAMDk6g-67" value="" style="endArrow=none;html=1;rounded=0;exitX=0.124;exitY=1.033;exitDx=0;exitDy=0;exitPerimeter=0;" edge="1" parent="hQxpPtHJT12RlVAMDk6g-47">
          <mxGeometry width="50" height="50" relative="1" as="geometry">
            <mxPoint x="31.138571428571332" y="210.99" as="sourcePoint" />
            <mxPoint x="29.99571428571428" y="120" as="targetPoint" />
          </mxGeometry>
        </mxCell>
        <mxCell id="hQxpPtHJT12RlVAMDk6g-136" value="" style="group" vertex="1" connectable="0" parent="1">
          <mxGeometry x="790" y="370" width="181" height="170" as="geometry" />
        </mxCell>
        <mxCell id="hQxpPtHJT12RlVAMDk6g-118" value="EnergyUsage" style="shape=table;startSize=30;container=1;collapsible=1;childLayout=tableLayout;fixedRows=1;rowLines=0;fontStyle=1;align=center;resizeLast=1;html=1;" vertex="1" parent="hQxpPtHJT12RlVAMDk6g-136">
          <mxGeometry width="170" height="170" as="geometry">
            <mxRectangle x="810" y="390" width="70" height="30" as="alternateBounds" />
          </mxGeometry>
        </mxCell>
        <mxCell id="hQxpPtHJT12RlVAMDk6g-119" value="" style="shape=tableRow;horizontal=0;startSize=0;swimlaneHead=0;swimlaneBody=0;fillColor=none;collapsible=0;dropTarget=0;points=[[0,0.5],[1,0.5]];portConstraint=eastwest;top=0;left=0;right=0;bottom=1;" vertex="1" parent="hQxpPtHJT12RlVAMDk6g-118">
          <mxGeometry y="30" width="170" height="30" as="geometry" />
        </mxCell>
        <mxCell id="hQxpPtHJT12RlVAMDk6g-120" value="PK" style="shape=partialRectangle;connectable=0;fillColor=none;top=0;left=0;bottom=0;right=0;fontStyle=1;overflow=hidden;whiteSpace=wrap;html=1;" vertex="1" parent="hQxpPtHJT12RlVAMDk6g-119">
          <mxGeometry width="30" height="30" as="geometry">
            <mxRectangle width="30" height="30" as="alternateBounds" />
          </mxGeometry>
        </mxCell>
        <mxCell id="hQxpPtHJT12RlVAMDk6g-121" value="EnergyUsageID " style="shape=partialRectangle;connectable=0;fillColor=none;top=0;left=0;bottom=0;right=0;align=left;spacingLeft=6;fontStyle=5;overflow=hidden;whiteSpace=wrap;html=1;" vertex="1" parent="hQxpPtHJT12RlVAMDk6g-119">
          <mxGeometry x="30" width="140" height="30" as="geometry">
            <mxRectangle width="140" height="30" as="alternateBounds" />
          </mxGeometry>
        </mxCell>
        <mxCell id="hQxpPtHJT12RlVAMDk6g-122" value="" style="shape=tableRow;horizontal=0;startSize=0;swimlaneHead=0;swimlaneBody=0;fillColor=none;collapsible=0;dropTarget=0;points=[[0,0.5],[1,0.5]];portConstraint=eastwest;top=0;left=0;right=0;bottom=0;" vertex="1" parent="hQxpPtHJT12RlVAMDk6g-118">
          <mxGeometry y="60" width="170" height="20" as="geometry" />
        </mxCell>
        <mxCell id="hQxpPtHJT12RlVAMDk6g-123" value="" style="shape=partialRectangle;connectable=0;fillColor=none;top=0;left=0;bottom=0;right=0;editable=1;overflow=hidden;whiteSpace=wrap;html=1;" vertex="1" parent="hQxpPtHJT12RlVAMDk6g-122">
          <mxGeometry width="30" height="20" as="geometry">
            <mxRectangle width="30" height="20" as="alternateBounds" />
          </mxGeometry>
        </mxCell>
        <mxCell id="hQxpPtHJT12RlVAMDk6g-124" value="FacilityID " style="shape=partialRectangle;connectable=0;fillColor=none;top=0;left=0;bottom=0;right=0;align=left;spacingLeft=6;overflow=hidden;whiteSpace=wrap;html=1;" vertex="1" parent="hQxpPtHJT12RlVAMDk6g-122">
          <mxGeometry x="30" width="140" height="20" as="geometry">
            <mxRectangle width="140" height="20" as="alternateBounds" />
          </mxGeometry>
        </mxCell>
        <mxCell id="hQxpPtHJT12RlVAMDk6g-125" value="" style="shape=tableRow;horizontal=0;startSize=0;swimlaneHead=0;swimlaneBody=0;fillColor=none;collapsible=0;dropTarget=0;points=[[0,0.5],[1,0.5]];portConstraint=eastwest;top=0;left=0;right=0;bottom=0;" vertex="1" parent="hQxpPtHJT12RlVAMDk6g-118">
          <mxGeometry y="80" width="170" height="30" as="geometry" />
        </mxCell>
        <mxCell id="hQxpPtHJT12RlVAMDk6g-126" value="" style="shape=partialRectangle;connectable=0;fillColor=none;top=0;left=0;bottom=0;right=0;editable=1;overflow=hidden;whiteSpace=wrap;html=1;" vertex="1" parent="hQxpPtHJT12RlVAMDk6g-125">
          <mxGeometry width="30" height="30" as="geometry">
            <mxRectangle width="30" height="30" as="alternateBounds" />
          </mxGeometry>
        </mxCell>
        <mxCell id="hQxpPtHJT12RlVAMDk6g-127" value="Date" style="shape=partialRectangle;connectable=0;fillColor=none;top=0;left=0;bottom=0;right=0;align=left;spacingLeft=6;overflow=hidden;whiteSpace=wrap;html=1;" vertex="1" parent="hQxpPtHJT12RlVAMDk6g-125">
          <mxGeometry x="30" width="140" height="30" as="geometry">
            <mxRectangle width="140" height="30" as="alternateBounds" />
          </mxGeometry>
        </mxCell>
        <mxCell id="hQxpPtHJT12RlVAMDk6g-128" value="" style="shape=tableRow;horizontal=0;startSize=0;swimlaneHead=0;swimlaneBody=0;fillColor=none;collapsible=0;dropTarget=0;points=[[0,0.5],[1,0.5]];portConstraint=eastwest;top=0;left=0;right=0;bottom=0;" vertex="1" parent="hQxpPtHJT12RlVAMDk6g-118">
          <mxGeometry y="110" width="170" height="30" as="geometry" />
        </mxCell>
        <mxCell id="hQxpPtHJT12RlVAMDk6g-129" value="" style="shape=partialRectangle;connectable=0;fillColor=none;top=0;left=0;bottom=0;right=0;editable=1;overflow=hidden;whiteSpace=wrap;html=1;" vertex="1" parent="hQxpPtHJT12RlVAMDk6g-128">
          <mxGeometry width="30" height="30" as="geometry">
            <mxRectangle width="30" height="30" as="alternateBounds" />
          </mxGeometry>
        </mxCell>
        <mxCell id="hQxpPtHJT12RlVAMDk6g-130" value="Cost" style="shape=partialRectangle;connectable=0;fillColor=none;top=0;left=0;bottom=0;right=0;align=left;spacingLeft=6;overflow=hidden;whiteSpace=wrap;html=1;" vertex="1" parent="hQxpPtHJT12RlVAMDk6g-128">
          <mxGeometry x="30" width="140" height="30" as="geometry">
            <mxRectangle width="140" height="30" as="alternateBounds" />
          </mxGeometry>
        </mxCell>
        <mxCell id="hQxpPtHJT12RlVAMDk6g-131" value="" style="endArrow=none;html=1;rounded=0;entryX=0.173;entryY=0.989;entryDx=0;entryDy=0;entryPerimeter=0;" edge="1" parent="hQxpPtHJT12RlVAMDk6g-136" target="hQxpPtHJT12RlVAMDk6g-133">
          <mxGeometry relative="1" as="geometry">
            <mxPoint x="30" y="140" as="sourcePoint" />
            <mxPoint x="30" y="200" as="targetPoint" />
          </mxGeometry>
        </mxCell>
        <mxCell id="hQxpPtHJT12RlVAMDk6g-133" value="" style="shape=tableRow;horizontal=0;startSize=0;swimlaneHead=0;swimlaneBody=0;fillColor=none;collapsible=0;dropTarget=0;points=[[0,0.5],[1,0.5]];portConstraint=eastwest;top=0;left=0;right=0;bottom=0;" vertex="1" parent="hQxpPtHJT12RlVAMDk6g-136">
          <mxGeometry y="140" width="181" height="30" as="geometry" />
        </mxCell>
        <mxCell id="hQxpPtHJT12RlVAMDk6g-134" value="" style="shape=partialRectangle;connectable=0;fillColor=none;top=0;left=0;bottom=0;right=0;editable=1;overflow=hidden;whiteSpace=wrap;html=1;" vertex="1" parent="hQxpPtHJT12RlVAMDk6g-133">
          <mxGeometry width="30" height="30" as="geometry">
            <mxRectangle width="30" height="30" as="alternateBounds" />
          </mxGeometry>
        </mxCell>
        <mxCell id="hQxpPtHJT12RlVAMDk6g-135" value="Usage" style="shape=partialRectangle;connectable=0;fillColor=none;top=0;left=0;bottom=0;right=0;align=left;spacingLeft=6;overflow=hidden;whiteSpace=wrap;html=1;" vertex="1" parent="hQxpPtHJT12RlVAMDk6g-133">
          <mxGeometry x="30" width="151" height="30" as="geometry">
            <mxRectangle width="151" height="30" as="alternateBounds" />
          </mxGeometry>
        </mxCell>
        <mxCell id="hQxpPtHJT12RlVAMDk6g-137" value="" style="group" vertex="1" connectable="0" parent="1">
          <mxGeometry x="120" y="630" width="181" height="170" as="geometry" />
        </mxCell>
        <mxCell id="hQxpPtHJT12RlVAMDk6g-138" value="EnvironmentalMetric" style="shape=table;startSize=30;container=1;collapsible=1;childLayout=tableLayout;fixedRows=1;rowLines=0;fontStyle=1;align=center;resizeLast=1;html=1;" vertex="1" parent="hQxpPtHJT12RlVAMDk6g-137">
          <mxGeometry width="170" height="170" as="geometry">
            <mxRectangle x="810" y="390" width="70" height="30" as="alternateBounds" />
          </mxGeometry>
        </mxCell>
        <mxCell id="hQxpPtHJT12RlVAMDk6g-139" value="" style="shape=tableRow;horizontal=0;startSize=0;swimlaneHead=0;swimlaneBody=0;fillColor=none;collapsible=0;dropTarget=0;points=[[0,0.5],[1,0.5]];portConstraint=eastwest;top=0;left=0;right=0;bottom=1;" vertex="1" parent="hQxpPtHJT12RlVAMDk6g-138">
          <mxGeometry y="30" width="170" height="30" as="geometry" />
        </mxCell>
        <mxCell id="hQxpPtHJT12RlVAMDk6g-140" value="PK" style="shape=partialRectangle;connectable=0;fillColor=none;top=0;left=0;bottom=0;right=0;fontStyle=1;overflow=hidden;whiteSpace=wrap;html=1;" vertex="1" parent="hQxpPtHJT12RlVAMDk6g-139">
          <mxGeometry width="30" height="30" as="geometry">
            <mxRectangle width="30" height="30" as="alternateBounds" />
          </mxGeometry>
        </mxCell>
        <mxCell id="hQxpPtHJT12RlVAMDk6g-141" value="EnergyUsageID " style="shape=partialRectangle;connectable=0;fillColor=none;top=0;left=0;bottom=0;right=0;align=left;spacingLeft=6;fontStyle=5;overflow=hidden;whiteSpace=wrap;html=1;" vertex="1" parent="hQxpPtHJT12RlVAMDk6g-139">
          <mxGeometry x="30" width="140" height="30" as="geometry">
            <mxRectangle width="140" height="30" as="alternateBounds" />
          </mxGeometry>
        </mxCell>
        <mxCell id="hQxpPtHJT12RlVAMDk6g-142" value="" style="shape=tableRow;horizontal=0;startSize=0;swimlaneHead=0;swimlaneBody=0;fillColor=none;collapsible=0;dropTarget=0;points=[[0,0.5],[1,0.5]];portConstraint=eastwest;top=0;left=0;right=0;bottom=0;" vertex="1" parent="hQxpPtHJT12RlVAMDk6g-138">
          <mxGeometry y="60" width="170" height="20" as="geometry" />
        </mxCell>
        <mxCell id="hQxpPtHJT12RlVAMDk6g-143" value="" style="shape=partialRectangle;connectable=0;fillColor=none;top=0;left=0;bottom=0;right=0;editable=1;overflow=hidden;whiteSpace=wrap;html=1;" vertex="1" parent="hQxpPtHJT12RlVAMDk6g-142">
          <mxGeometry width="30" height="20" as="geometry">
            <mxRectangle width="30" height="20" as="alternateBounds" />
          </mxGeometry>
        </mxCell>
        <mxCell id="hQxpPtHJT12RlVAMDk6g-144" value="MetricType" style="shape=partialRectangle;connectable=0;fillColor=none;top=0;left=0;bottom=0;right=0;align=left;spacingLeft=6;overflow=hidden;whiteSpace=wrap;html=1;" vertex="1" parent="hQxpPtHJT12RlVAMDk6g-142">
          <mxGeometry x="30" width="140" height="20" as="geometry">
            <mxRectangle width="140" height="20" as="alternateBounds" />
          </mxGeometry>
        </mxCell>
        <mxCell id="hQxpPtHJT12RlVAMDk6g-145" value="" style="shape=tableRow;horizontal=0;startSize=0;swimlaneHead=0;swimlaneBody=0;fillColor=none;collapsible=0;dropTarget=0;points=[[0,0.5],[1,0.5]];portConstraint=eastwest;top=0;left=0;right=0;bottom=0;" vertex="1" parent="hQxpPtHJT12RlVAMDk6g-138">
          <mxGeometry y="80" width="170" height="30" as="geometry" />
        </mxCell>
        <mxCell id="hQxpPtHJT12RlVAMDk6g-146" value="" style="shape=partialRectangle;connectable=0;fillColor=none;top=0;left=0;bottom=0;right=0;editable=1;overflow=hidden;whiteSpace=wrap;html=1;" vertex="1" parent="hQxpPtHJT12RlVAMDk6g-145">
          <mxGeometry width="30" height="30" as="geometry">
            <mxRectangle width="30" height="30" as="alternateBounds" />
          </mxGeometry>
        </mxCell>
        <mxCell id="hQxpPtHJT12RlVAMDk6g-147" value="Date" style="shape=partialRectangle;connectable=0;fillColor=none;top=0;left=0;bottom=0;right=0;align=left;spacingLeft=6;overflow=hidden;whiteSpace=wrap;html=1;" vertex="1" parent="hQxpPtHJT12RlVAMDk6g-145">
          <mxGeometry x="30" width="140" height="30" as="geometry">
            <mxRectangle width="140" height="30" as="alternateBounds" />
          </mxGeometry>
        </mxCell>
        <mxCell id="hQxpPtHJT12RlVAMDk6g-148" value="" style="shape=tableRow;horizontal=0;startSize=0;swimlaneHead=0;swimlaneBody=0;fillColor=none;collapsible=0;dropTarget=0;points=[[0,0.5],[1,0.5]];portConstraint=eastwest;top=0;left=0;right=0;bottom=0;" vertex="1" parent="hQxpPtHJT12RlVAMDk6g-138">
          <mxGeometry y="110" width="170" height="30" as="geometry" />
        </mxCell>
        <mxCell id="hQxpPtHJT12RlVAMDk6g-149" value="" style="shape=partialRectangle;connectable=0;fillColor=none;top=0;left=0;bottom=0;right=0;editable=1;overflow=hidden;whiteSpace=wrap;html=1;" vertex="1" parent="hQxpPtHJT12RlVAMDk6g-148">
          <mxGeometry width="30" height="30" as="geometry">
            <mxRectangle width="30" height="30" as="alternateBounds" />
          </mxGeometry>
        </mxCell>
        <mxCell id="hQxpPtHJT12RlVAMDk6g-150" value="Value" style="shape=partialRectangle;connectable=0;fillColor=none;top=0;left=0;bottom=0;right=0;align=left;spacingLeft=6;overflow=hidden;whiteSpace=wrap;html=1;" vertex="1" parent="hQxpPtHJT12RlVAMDk6g-148">
          <mxGeometry x="30" width="140" height="30" as="geometry">
            <mxRectangle width="140" height="30" as="alternateBounds" />
          </mxGeometry>
        </mxCell>
        <mxCell id="hQxpPtHJT12RlVAMDk6g-151" value="" style="endArrow=none;html=1;rounded=0;entryX=0.173;entryY=0.989;entryDx=0;entryDy=0;entryPerimeter=0;" edge="1" parent="hQxpPtHJT12RlVAMDk6g-137" target="hQxpPtHJT12RlVAMDk6g-152">
          <mxGeometry relative="1" as="geometry">
            <mxPoint x="30" y="140" as="sourcePoint" />
            <mxPoint x="30" y="200" as="targetPoint" />
          </mxGeometry>
        </mxCell>
        <mxCell id="hQxpPtHJT12RlVAMDk6g-152" value="" style="shape=tableRow;horizontal=0;startSize=0;swimlaneHead=0;swimlaneBody=0;fillColor=none;collapsible=0;dropTarget=0;points=[[0,0.5],[1,0.5]];portConstraint=eastwest;top=0;left=0;right=0;bottom=0;" vertex="1" parent="hQxpPtHJT12RlVAMDk6g-137">
          <mxGeometry y="140" width="181" height="30" as="geometry" />
        </mxCell>
        <mxCell id="hQxpPtHJT12RlVAMDk6g-153" value="" style="shape=partialRectangle;connectable=0;fillColor=none;top=0;left=0;bottom=0;right=0;editable=1;overflow=hidden;whiteSpace=wrap;html=1;" vertex="1" parent="hQxpPtHJT12RlVAMDk6g-152">
          <mxGeometry width="30" height="30" as="geometry">
            <mxRectangle width="30" height="30" as="alternateBounds" />
          </mxGeometry>
        </mxCell>
        <mxCell id="hQxpPtHJT12RlVAMDk6g-154" value="Date" style="shape=partialRectangle;connectable=0;fillColor=none;top=0;left=0;bottom=0;right=0;align=left;spacingLeft=6;overflow=hidden;whiteSpace=wrap;html=1;" vertex="1" parent="hQxpPtHJT12RlVAMDk6g-152">
          <mxGeometry x="30" width="151" height="30" as="geometry">
            <mxRectangle width="151" height="30" as="alternateBounds" />
          </mxGeometry>
        </mxCell>
        <mxCell id="hQxpPtHJT12RlVAMDk6g-155" value="" style="group" vertex="1" connectable="0" parent="1">
          <mxGeometry x="310" y="630" width="181" height="170" as="geometry" />
        </mxCell>
        <mxCell id="hQxpPtHJT12RlVAMDk6g-156" value="Compliance" style="shape=table;startSize=30;container=1;collapsible=1;childLayout=tableLayout;fixedRows=1;rowLines=0;fontStyle=1;align=center;resizeLast=1;html=1;" vertex="1" parent="hQxpPtHJT12RlVAMDk6g-155">
          <mxGeometry width="170" height="170" as="geometry">
            <mxRectangle x="810" y="390" width="70" height="30" as="alternateBounds" />
          </mxGeometry>
        </mxCell>
        <mxCell id="hQxpPtHJT12RlVAMDk6g-157" value="" style="shape=tableRow;horizontal=0;startSize=0;swimlaneHead=0;swimlaneBody=0;fillColor=none;collapsible=0;dropTarget=0;points=[[0,0.5],[1,0.5]];portConstraint=eastwest;top=0;left=0;right=0;bottom=1;" vertex="1" parent="hQxpPtHJT12RlVAMDk6g-156">
          <mxGeometry y="30" width="170" height="30" as="geometry" />
        </mxCell>
        <mxCell id="hQxpPtHJT12RlVAMDk6g-158" value="PK" style="shape=partialRectangle;connectable=0;fillColor=none;top=0;left=0;bottom=0;right=0;fontStyle=1;overflow=hidden;whiteSpace=wrap;html=1;" vertex="1" parent="hQxpPtHJT12RlVAMDk6g-157">
          <mxGeometry width="30" height="30" as="geometry">
            <mxRectangle width="30" height="30" as="alternateBounds" />
          </mxGeometry>
        </mxCell>
        <mxCell id="hQxpPtHJT12RlVAMDk6g-159" value="ComplianceID " style="shape=partialRectangle;connectable=0;fillColor=none;top=0;left=0;bottom=0;right=0;align=left;spacingLeft=6;fontStyle=5;overflow=hidden;whiteSpace=wrap;html=1;" vertex="1" parent="hQxpPtHJT12RlVAMDk6g-157">
          <mxGeometry x="30" width="140" height="30" as="geometry">
            <mxRectangle width="140" height="30" as="alternateBounds" />
          </mxGeometry>
        </mxCell>
        <mxCell id="hQxpPtHJT12RlVAMDk6g-160" value="" style="shape=tableRow;horizontal=0;startSize=0;swimlaneHead=0;swimlaneBody=0;fillColor=none;collapsible=0;dropTarget=0;points=[[0,0.5],[1,0.5]];portConstraint=eastwest;top=0;left=0;right=0;bottom=0;" vertex="1" parent="hQxpPtHJT12RlVAMDk6g-156">
          <mxGeometry y="60" width="170" height="20" as="geometry" />
        </mxCell>
        <mxCell id="hQxpPtHJT12RlVAMDk6g-161" value="" style="shape=partialRectangle;connectable=0;fillColor=none;top=0;left=0;bottom=0;right=0;editable=1;overflow=hidden;whiteSpace=wrap;html=1;" vertex="1" parent="hQxpPtHJT12RlVAMDk6g-160">
          <mxGeometry width="30" height="20" as="geometry">
            <mxRectangle width="30" height="20" as="alternateBounds" />
          </mxGeometry>
        </mxCell>
        <mxCell id="hQxpPtHJT12RlVAMDk6g-162" value="FacilityID " style="shape=partialRectangle;connectable=0;fillColor=none;top=0;left=0;bottom=0;right=0;align=left;spacingLeft=6;overflow=hidden;whiteSpace=wrap;html=1;" vertex="1" parent="hQxpPtHJT12RlVAMDk6g-160">
          <mxGeometry x="30" width="140" height="20" as="geometry">
            <mxRectangle width="140" height="20" as="alternateBounds" />
          </mxGeometry>
        </mxCell>
        <mxCell id="hQxpPtHJT12RlVAMDk6g-163" value="" style="shape=tableRow;horizontal=0;startSize=0;swimlaneHead=0;swimlaneBody=0;fillColor=none;collapsible=0;dropTarget=0;points=[[0,0.5],[1,0.5]];portConstraint=eastwest;top=0;left=0;right=0;bottom=0;" vertex="1" parent="hQxpPtHJT12RlVAMDk6g-156">
          <mxGeometry y="80" width="170" height="30" as="geometry" />
        </mxCell>
        <mxCell id="hQxpPtHJT12RlVAMDk6g-164" value="" style="shape=partialRectangle;connectable=0;fillColor=none;top=0;left=0;bottom=0;right=0;editable=1;overflow=hidden;whiteSpace=wrap;html=1;" vertex="1" parent="hQxpPtHJT12RlVAMDk6g-163">
          <mxGeometry width="30" height="30" as="geometry">
            <mxRectangle width="30" height="30" as="alternateBounds" />
          </mxGeometry>
        </mxCell>
        <mxCell id="hQxpPtHJT12RlVAMDk6g-165" value="Type" style="shape=partialRectangle;connectable=0;fillColor=none;top=0;left=0;bottom=0;right=0;align=left;spacingLeft=6;overflow=hidden;whiteSpace=wrap;html=1;" vertex="1" parent="hQxpPtHJT12RlVAMDk6g-163">
          <mxGeometry x="30" width="140" height="30" as="geometry">
            <mxRectangle width="140" height="30" as="alternateBounds" />
          </mxGeometry>
        </mxCell>
        <mxCell id="hQxpPtHJT12RlVAMDk6g-166" value="" style="shape=tableRow;horizontal=0;startSize=0;swimlaneHead=0;swimlaneBody=0;fillColor=none;collapsible=0;dropTarget=0;points=[[0,0.5],[1,0.5]];portConstraint=eastwest;top=0;left=0;right=0;bottom=0;" vertex="1" parent="hQxpPtHJT12RlVAMDk6g-156">
          <mxGeometry y="110" width="170" height="30" as="geometry" />
        </mxCell>
        <mxCell id="hQxpPtHJT12RlVAMDk6g-167" value="" style="shape=partialRectangle;connectable=0;fillColor=none;top=0;left=0;bottom=0;right=0;editable=1;overflow=hidden;whiteSpace=wrap;html=1;" vertex="1" parent="hQxpPtHJT12RlVAMDk6g-166">
          <mxGeometry width="30" height="30" as="geometry">
            <mxRectangle width="30" height="30" as="alternateBounds" />
          </mxGeometry>
        </mxCell>
        <mxCell id="hQxpPtHJT12RlVAMDk6g-168" value="Status" style="shape=partialRectangle;connectable=0;fillColor=none;top=0;left=0;bottom=0;right=0;align=left;spacingLeft=6;overflow=hidden;whiteSpace=wrap;html=1;" vertex="1" parent="hQxpPtHJT12RlVAMDk6g-166">
          <mxGeometry x="30" width="140" height="30" as="geometry">
            <mxRectangle width="140" height="30" as="alternateBounds" />
          </mxGeometry>
        </mxCell>
        <mxCell id="hQxpPtHJT12RlVAMDk6g-169" value="" style="endArrow=none;html=1;rounded=0;entryX=0.173;entryY=0.989;entryDx=0;entryDy=0;entryPerimeter=0;" edge="1" parent="hQxpPtHJT12RlVAMDk6g-155" target="hQxpPtHJT12RlVAMDk6g-170">
          <mxGeometry relative="1" as="geometry">
            <mxPoint x="30" y="140" as="sourcePoint" />
            <mxPoint x="30" y="200" as="targetPoint" />
          </mxGeometry>
        </mxCell>
        <mxCell id="hQxpPtHJT12RlVAMDk6g-170" value="" style="shape=tableRow;horizontal=0;startSize=0;swimlaneHead=0;swimlaneBody=0;fillColor=none;collapsible=0;dropTarget=0;points=[[0,0.5],[1,0.5]];portConstraint=eastwest;top=0;left=0;right=0;bottom=0;" vertex="1" parent="hQxpPtHJT12RlVAMDk6g-155">
          <mxGeometry y="140" width="181" height="30" as="geometry" />
        </mxCell>
        <mxCell id="hQxpPtHJT12RlVAMDk6g-171" value="" style="shape=partialRectangle;connectable=0;fillColor=none;top=0;left=0;bottom=0;right=0;editable=1;overflow=hidden;whiteSpace=wrap;html=1;" vertex="1" parent="hQxpPtHJT12RlVAMDk6g-170">
          <mxGeometry width="30" height="30" as="geometry">
            <mxRectangle width="30" height="30" as="alternateBounds" />
          </mxGeometry>
        </mxCell>
        <mxCell id="hQxpPtHJT12RlVAMDk6g-172" value="ExpiryDate" style="shape=partialRectangle;connectable=0;fillColor=none;top=0;left=0;bottom=0;right=0;align=left;spacingLeft=6;overflow=hidden;whiteSpace=wrap;html=1;" vertex="1" parent="hQxpPtHJT12RlVAMDk6g-170">
          <mxGeometry x="30" width="151" height="30" as="geometry">
            <mxRectangle width="151" height="30" as="alternateBounds" />
          </mxGeometry>
        </mxCell>
        <mxCell id="hQxpPtHJT12RlVAMDk6g-173" value="" style="group" vertex="1" connectable="0" parent="1">
          <mxGeometry x="499.5" y="630" width="181" height="200" as="geometry" />
        </mxCell>
        <mxCell id="hQxpPtHJT12RlVAMDk6g-174" value="Inventory" style="shape=table;startSize=30;container=1;collapsible=1;childLayout=tableLayout;fixedRows=1;rowLines=0;fontStyle=1;align=center;resizeLast=1;html=1;" vertex="1" parent="hQxpPtHJT12RlVAMDk6g-173">
          <mxGeometry width="170" height="200" as="geometry">
            <mxRectangle x="810" y="390" width="70" height="30" as="alternateBounds" />
          </mxGeometry>
        </mxCell>
        <mxCell id="hQxpPtHJT12RlVAMDk6g-175" value="" style="shape=tableRow;horizontal=0;startSize=0;swimlaneHead=0;swimlaneBody=0;fillColor=none;collapsible=0;dropTarget=0;points=[[0,0.5],[1,0.5]];portConstraint=eastwest;top=0;left=0;right=0;bottom=1;" vertex="1" parent="hQxpPtHJT12RlVAMDk6g-174">
          <mxGeometry y="30" width="170" height="30" as="geometry" />
        </mxCell>
        <mxCell id="hQxpPtHJT12RlVAMDk6g-176" value="PK" style="shape=partialRectangle;connectable=0;fillColor=none;top=0;left=0;bottom=0;right=0;fontStyle=1;overflow=hidden;whiteSpace=wrap;html=1;" vertex="1" parent="hQxpPtHJT12RlVAMDk6g-175">
          <mxGeometry width="30.5" height="30" as="geometry">
            <mxRectangle width="30.5" height="30" as="alternateBounds" />
          </mxGeometry>
        </mxCell>
        <mxCell id="hQxpPtHJT12RlVAMDk6g-177" value="ComplianceID " style="shape=partialRectangle;connectable=0;fillColor=none;top=0;left=0;bottom=0;right=0;align=left;spacingLeft=6;fontStyle=5;overflow=hidden;whiteSpace=wrap;html=1;" vertex="1" parent="hQxpPtHJT12RlVAMDk6g-175">
          <mxGeometry x="30.5" width="139.5" height="30" as="geometry">
            <mxRectangle width="139.5" height="30" as="alternateBounds" />
          </mxGeometry>
        </mxCell>
        <mxCell id="hQxpPtHJT12RlVAMDk6g-178" value="" style="shape=tableRow;horizontal=0;startSize=0;swimlaneHead=0;swimlaneBody=0;fillColor=none;collapsible=0;dropTarget=0;points=[[0,0.5],[1,0.5]];portConstraint=eastwest;top=0;left=0;right=0;bottom=0;" vertex="1" parent="hQxpPtHJT12RlVAMDk6g-174">
          <mxGeometry y="60" width="170" height="20" as="geometry" />
        </mxCell>
        <mxCell id="hQxpPtHJT12RlVAMDk6g-179" value="" style="shape=partialRectangle;connectable=0;fillColor=none;top=0;left=0;bottom=0;right=0;editable=1;overflow=hidden;whiteSpace=wrap;html=1;" vertex="1" parent="hQxpPtHJT12RlVAMDk6g-178">
          <mxGeometry width="30.5" height="20" as="geometry">
            <mxRectangle width="30.5" height="20" as="alternateBounds" />
          </mxGeometry>
        </mxCell>
        <mxCell id="hQxpPtHJT12RlVAMDk6g-180" value="InventoryID " style="shape=partialRectangle;connectable=0;fillColor=none;top=0;left=0;bottom=0;right=0;align=left;spacingLeft=6;overflow=hidden;whiteSpace=wrap;html=1;" vertex="1" parent="hQxpPtHJT12RlVAMDk6g-178">
          <mxGeometry x="30.5" width="139.5" height="20" as="geometry">
            <mxRectangle width="139.5" height="20" as="alternateBounds" />
          </mxGeometry>
        </mxCell>
        <mxCell id="hQxpPtHJT12RlVAMDk6g-181" value="" style="shape=tableRow;horizontal=0;startSize=0;swimlaneHead=0;swimlaneBody=0;fillColor=none;collapsible=0;dropTarget=0;points=[[0,0.5],[1,0.5]];portConstraint=eastwest;top=0;left=0;right=0;bottom=0;" vertex="1" parent="hQxpPtHJT12RlVAMDk6g-174">
          <mxGeometry y="80" width="170" height="30" as="geometry" />
        </mxCell>
        <mxCell id="hQxpPtHJT12RlVAMDk6g-182" value="" style="shape=partialRectangle;connectable=0;fillColor=none;top=0;left=0;bottom=0;right=0;editable=1;overflow=hidden;whiteSpace=wrap;html=1;" vertex="1" parent="hQxpPtHJT12RlVAMDk6g-181">
          <mxGeometry width="30.5" height="30" as="geometry">
            <mxRectangle width="30.5" height="30" as="alternateBounds" />
          </mxGeometry>
        </mxCell>
        <mxCell id="hQxpPtHJT12RlVAMDk6g-183" value="FacilityID " style="shape=partialRectangle;connectable=0;fillColor=none;top=0;left=0;bottom=0;right=0;align=left;spacingLeft=6;overflow=hidden;whiteSpace=wrap;html=1;" vertex="1" parent="hQxpPtHJT12RlVAMDk6g-181">
          <mxGeometry x="30.5" width="139.5" height="30" as="geometry">
            <mxRectangle width="139.5" height="30" as="alternateBounds" />
          </mxGeometry>
        </mxCell>
        <mxCell id="hQxpPtHJT12RlVAMDk6g-184" value="" style="shape=tableRow;horizontal=0;startSize=0;swimlaneHead=0;swimlaneBody=0;fillColor=none;collapsible=0;dropTarget=0;points=[[0,0.5],[1,0.5]];portConstraint=eastwest;top=0;left=0;right=0;bottom=0;" vertex="1" parent="hQxpPtHJT12RlVAMDk6g-174">
          <mxGeometry y="110" width="170" height="30" as="geometry" />
        </mxCell>
        <mxCell id="hQxpPtHJT12RlVAMDk6g-185" value="" style="shape=partialRectangle;connectable=0;fillColor=none;top=0;left=0;bottom=0;right=0;editable=1;overflow=hidden;whiteSpace=wrap;html=1;" vertex="1" parent="hQxpPtHJT12RlVAMDk6g-184">
          <mxGeometry width="30.5" height="30" as="geometry">
            <mxRectangle width="30.5" height="30" as="alternateBounds" />
          </mxGeometry>
        </mxCell>
        <mxCell id="hQxpPtHJT12RlVAMDk6g-186" value="ItemName" style="shape=partialRectangle;connectable=0;fillColor=none;top=0;left=0;bottom=0;right=0;align=left;spacingLeft=6;overflow=hidden;whiteSpace=wrap;html=1;" vertex="1" parent="hQxpPtHJT12RlVAMDk6g-184">
          <mxGeometry x="30.5" width="139.5" height="30" as="geometry">
            <mxRectangle width="139.5" height="30" as="alternateBounds" />
          </mxGeometry>
        </mxCell>
        <mxCell id="hQxpPtHJT12RlVAMDk6g-188" value="" style="shape=tableRow;horizontal=0;startSize=0;swimlaneHead=0;swimlaneBody=0;fillColor=none;collapsible=0;dropTarget=0;points=[[0,0.5],[1,0.5]];portConstraint=eastwest;top=0;left=0;right=0;bottom=0;" vertex="1" parent="hQxpPtHJT12RlVAMDk6g-173">
          <mxGeometry y="140" width="181" height="30" as="geometry" />
        </mxCell>
        <mxCell id="hQxpPtHJT12RlVAMDk6g-192" value="" style="endArrow=none;html=1;rounded=0;" edge="1" parent="hQxpPtHJT12RlVAMDk6g-173">
          <mxGeometry relative="1" as="geometry">
            <mxPoint x="30.5" y="170" as="sourcePoint" />
            <mxPoint x="30.5" y="200" as="targetPoint" />
          </mxGeometry>
        </mxCell>
        <mxCell id="hQxpPtHJT12RlVAMDk6g-189" value="" style="shape=partialRectangle;connectable=0;fillColor=none;top=0;left=0;bottom=0;right=0;editable=1;overflow=hidden;whiteSpace=wrap;html=1;" vertex="1" parent="hQxpPtHJT12RlVAMDk6g-173">
          <mxGeometry x="10.5" y="140" width="30" height="30" as="geometry">
            <mxRectangle width="30" height="30" as="alternateBounds" />
          </mxGeometry>
        </mxCell>
        <mxCell id="hQxpPtHJT12RlVAMDk6g-187" value="" style="endArrow=none;html=1;rounded=0;" edge="1" parent="hQxpPtHJT12RlVAMDk6g-173">
          <mxGeometry relative="1" as="geometry">
            <mxPoint x="30.5" y="140" as="sourcePoint" />
            <mxPoint x="30.5" y="170" as="targetPoint" />
          </mxGeometry>
        </mxCell>
        <mxCell id="hQxpPtHJT12RlVAMDk6g-190" value="Quantity" style="shape=partialRectangle;connectable=0;fillColor=none;top=0;left=0;bottom=0;right=0;align=left;spacingLeft=6;overflow=hidden;whiteSpace=wrap;html=1;" vertex="1" parent="hQxpPtHJT12RlVAMDk6g-173">
          <mxGeometry x="30.5" y="140" width="131" height="30" as="geometry">
            <mxRectangle width="151" height="30" as="alternateBounds" />
          </mxGeometry>
        </mxCell>
        <mxCell id="hQxpPtHJT12RlVAMDk6g-193" value="UnitPrice" style="shape=partialRectangle;connectable=0;fillColor=none;top=0;left=0;bottom=0;right=0;align=left;spacingLeft=6;overflow=hidden;whiteSpace=wrap;html=1;" vertex="1" parent="hQxpPtHJT12RlVAMDk6g-173">
          <mxGeometry x="25" y="170" width="131" height="30" as="geometry">
            <mxRectangle width="151" height="30" as="alternateBounds" />
          </mxGeometry>
        </mxCell>
        <mxCell id="hQxpPtHJT12RlVAMDk6g-217" value="" style="group" vertex="1" connectable="0" parent="1">
          <mxGeometry x="120" y="830" width="170" height="170" as="geometry" />
        </mxCell>
        <mxCell id="hQxpPtHJT12RlVAMDk6g-194" value="" style="group" vertex="1" connectable="0" parent="hQxpPtHJT12RlVAMDk6g-217">
          <mxGeometry width="170" height="170" as="geometry" />
        </mxCell>
        <mxCell id="hQxpPtHJT12RlVAMDk6g-195" value="SecurityEvent" style="shape=table;startSize=30;container=1;collapsible=1;childLayout=tableLayout;fixedRows=1;rowLines=0;fontStyle=1;align=center;resizeLast=1;html=1;" vertex="1" parent="hQxpPtHJT12RlVAMDk6g-194">
          <mxGeometry width="159.66850828729284" height="170" as="geometry">
            <mxRectangle x="810" y="390" width="70" height="30" as="alternateBounds" />
          </mxGeometry>
        </mxCell>
        <mxCell id="hQxpPtHJT12RlVAMDk6g-196" value="" style="shape=tableRow;horizontal=0;startSize=0;swimlaneHead=0;swimlaneBody=0;fillColor=none;collapsible=0;dropTarget=0;points=[[0,0.5],[1,0.5]];portConstraint=eastwest;top=0;left=0;right=0;bottom=1;" vertex="1" parent="hQxpPtHJT12RlVAMDk6g-195">
          <mxGeometry y="30" width="159.66850828729284" height="30" as="geometry" />
        </mxCell>
        <mxCell id="hQxpPtHJT12RlVAMDk6g-197" value="PK" style="shape=partialRectangle;connectable=0;fillColor=none;top=0;left=0;bottom=0;right=0;fontStyle=1;overflow=hidden;whiteSpace=wrap;html=1;" vertex="1" parent="hQxpPtHJT12RlVAMDk6g-196">
          <mxGeometry width="30.5" height="30" as="geometry">
            <mxRectangle width="30.5" height="30" as="alternateBounds" />
          </mxGeometry>
        </mxCell>
        <mxCell id="hQxpPtHJT12RlVAMDk6g-198" value="SecurityEventID " style="shape=partialRectangle;connectable=0;fillColor=none;top=0;left=0;bottom=0;right=0;align=left;spacingLeft=6;fontStyle=5;overflow=hidden;whiteSpace=wrap;html=1;" vertex="1" parent="hQxpPtHJT12RlVAMDk6g-196">
          <mxGeometry x="30.5" width="129.16850828729284" height="30" as="geometry">
            <mxRectangle width="129.16850828729284" height="30" as="alternateBounds" />
          </mxGeometry>
        </mxCell>
        <mxCell id="hQxpPtHJT12RlVAMDk6g-199" value="" style="shape=tableRow;horizontal=0;startSize=0;swimlaneHead=0;swimlaneBody=0;fillColor=none;collapsible=0;dropTarget=0;points=[[0,0.5],[1,0.5]];portConstraint=eastwest;top=0;left=0;right=0;bottom=0;" vertex="1" parent="hQxpPtHJT12RlVAMDk6g-195">
          <mxGeometry y="60" width="159.66850828729284" height="20" as="geometry" />
        </mxCell>
        <mxCell id="hQxpPtHJT12RlVAMDk6g-200" value="" style="shape=partialRectangle;connectable=0;fillColor=none;top=0;left=0;bottom=0;right=0;editable=1;overflow=hidden;whiteSpace=wrap;html=1;" vertex="1" parent="hQxpPtHJT12RlVAMDk6g-199">
          <mxGeometry width="30.5" height="20" as="geometry">
            <mxRectangle width="30.5" height="20" as="alternateBounds" />
          </mxGeometry>
        </mxCell>
        <mxCell id="hQxpPtHJT12RlVAMDk6g-201" value="FacilityID " style="shape=partialRectangle;connectable=0;fillColor=none;top=0;left=0;bottom=0;right=0;align=left;spacingLeft=6;overflow=hidden;whiteSpace=wrap;html=1;" vertex="1" parent="hQxpPtHJT12RlVAMDk6g-199">
          <mxGeometry x="30.5" width="129.16850828729284" height="20" as="geometry">
            <mxRectangle width="129.16850828729284" height="20" as="alternateBounds" />
          </mxGeometry>
        </mxCell>
        <mxCell id="hQxpPtHJT12RlVAMDk6g-202" value="" style="shape=tableRow;horizontal=0;startSize=0;swimlaneHead=0;swimlaneBody=0;fillColor=none;collapsible=0;dropTarget=0;points=[[0,0.5],[1,0.5]];portConstraint=eastwest;top=0;left=0;right=0;bottom=0;" vertex="1" parent="hQxpPtHJT12RlVAMDk6g-195">
          <mxGeometry y="80" width="159.66850828729284" height="30" as="geometry" />
        </mxCell>
        <mxCell id="hQxpPtHJT12RlVAMDk6g-203" value="" style="shape=partialRectangle;connectable=0;fillColor=none;top=0;left=0;bottom=0;right=0;editable=1;overflow=hidden;whiteSpace=wrap;html=1;" vertex="1" parent="hQxpPtHJT12RlVAMDk6g-202">
          <mxGeometry width="30.5" height="30" as="geometry">
            <mxRectangle width="30.5" height="30" as="alternateBounds" />
          </mxGeometry>
        </mxCell>
        <mxCell id="hQxpPtHJT12RlVAMDk6g-204" value="EventType" style="shape=partialRectangle;connectable=0;fillColor=none;top=0;left=0;bottom=0;right=0;align=left;spacingLeft=6;overflow=hidden;whiteSpace=wrap;html=1;" vertex="1" parent="hQxpPtHJT12RlVAMDk6g-202">
          <mxGeometry x="30.5" width="129.16850828729284" height="30" as="geometry">
            <mxRectangle width="129.16850828729284" height="30" as="alternateBounds" />
          </mxGeometry>
        </mxCell>
        <mxCell id="hQxpPtHJT12RlVAMDk6g-205" value="" style="shape=tableRow;horizontal=0;startSize=0;swimlaneHead=0;swimlaneBody=0;fillColor=none;collapsible=0;dropTarget=0;points=[[0,0.5],[1,0.5]];portConstraint=eastwest;top=0;left=0;right=0;bottom=0;" vertex="1" parent="hQxpPtHJT12RlVAMDk6g-195">
          <mxGeometry y="110" width="159.66850828729284" height="30" as="geometry" />
        </mxCell>
        <mxCell id="hQxpPtHJT12RlVAMDk6g-206" value="" style="shape=partialRectangle;connectable=0;fillColor=none;top=0;left=0;bottom=0;right=0;editable=1;overflow=hidden;whiteSpace=wrap;html=1;" vertex="1" parent="hQxpPtHJT12RlVAMDk6g-205">
          <mxGeometry width="30.5" height="30" as="geometry">
            <mxRectangle width="30.5" height="30" as="alternateBounds" />
          </mxGeometry>
        </mxCell>
        <mxCell id="hQxpPtHJT12RlVAMDk6g-207" value="Date" style="shape=partialRectangle;connectable=0;fillColor=none;top=0;left=0;bottom=0;right=0;align=left;spacingLeft=6;overflow=hidden;whiteSpace=wrap;html=1;" vertex="1" parent="hQxpPtHJT12RlVAMDk6g-205">
          <mxGeometry x="30.5" width="129.16850828729284" height="30" as="geometry">
            <mxRectangle width="129.16850828729284" height="30" as="alternateBounds" />
          </mxGeometry>
        </mxCell>
        <mxCell id="hQxpPtHJT12RlVAMDk6g-208" value="" style="shape=tableRow;horizontal=0;startSize=0;swimlaneHead=0;swimlaneBody=0;fillColor=none;collapsible=0;dropTarget=0;points=[[0,0.5],[1,0.5]];portConstraint=eastwest;top=0;left=0;right=0;bottom=0;" vertex="1" parent="hQxpPtHJT12RlVAMDk6g-194">
          <mxGeometry y="119" width="170" height="25.5" as="geometry" />
        </mxCell>
        <mxCell id="hQxpPtHJT12RlVAMDk6g-210" value="" style="shape=partialRectangle;connectable=0;fillColor=none;top=0;left=0;bottom=0;right=0;editable=1;overflow=hidden;whiteSpace=wrap;html=1;" vertex="1" parent="hQxpPtHJT12RlVAMDk6g-194">
          <mxGeometry x="9.861878453038674" y="119" width="28.1767955801105" height="25.5" as="geometry">
            <mxRectangle width="30" height="30" as="alternateBounds" />
          </mxGeometry>
        </mxCell>
        <mxCell id="hQxpPtHJT12RlVAMDk6g-212" value="Details" style="shape=partialRectangle;connectable=0;fillColor=none;top=0;left=0;bottom=0;right=0;align=left;spacingLeft=6;overflow=hidden;whiteSpace=wrap;html=1;" vertex="1" parent="hQxpPtHJT12RlVAMDk6g-194">
          <mxGeometry x="29.996408839779008" y="144.5" width="123.03867403314918" height="25.5" as="geometry">
            <mxRectangle width="151" height="30" as="alternateBounds" />
          </mxGeometry>
        </mxCell>
        <mxCell id="hQxpPtHJT12RlVAMDk6g-216" value="" style="endArrow=none;html=1;rounded=0;" edge="1" parent="hQxpPtHJT12RlVAMDk6g-217">
          <mxGeometry width="50" height="50" relative="1" as="geometry">
            <mxPoint x="30" y="170" as="sourcePoint" />
            <mxPoint x="30" y="140" as="targetPoint" />
          </mxGeometry>
        </mxCell>
        <mxCell id="hQxpPtHJT12RlVAMDk6g-231" value="" style="group" vertex="1" connectable="0" parent="1">
          <mxGeometry x="321" y="850" width="170" height="170" as="geometry" />
        </mxCell>
        <mxCell id="hQxpPtHJT12RlVAMDk6g-232" value="" style="group" vertex="1" connectable="0" parent="hQxpPtHJT12RlVAMDk6g-231">
          <mxGeometry width="170" height="170" as="geometry" />
        </mxCell>
        <mxCell id="hQxpPtHJT12RlVAMDk6g-233" value="Document" style="shape=table;startSize=30;container=1;collapsible=1;childLayout=tableLayout;fixedRows=1;rowLines=0;fontStyle=1;align=center;resizeLast=1;html=1;" vertex="1" parent="hQxpPtHJT12RlVAMDk6g-232">
          <mxGeometry width="159.66850828729284" height="170" as="geometry">
            <mxRectangle x="810" y="390" width="70" height="30" as="alternateBounds" />
          </mxGeometry>
        </mxCell>
        <mxCell id="hQxpPtHJT12RlVAMDk6g-234" value="" style="shape=tableRow;horizontal=0;startSize=0;swimlaneHead=0;swimlaneBody=0;fillColor=none;collapsible=0;dropTarget=0;points=[[0,0.5],[1,0.5]];portConstraint=eastwest;top=0;left=0;right=0;bottom=1;" vertex="1" parent="hQxpPtHJT12RlVAMDk6g-233">
          <mxGeometry y="30" width="159.66850828729284" height="30" as="geometry" />
        </mxCell>
        <mxCell id="hQxpPtHJT12RlVAMDk6g-235" value="PK" style="shape=partialRectangle;connectable=0;fillColor=none;top=0;left=0;bottom=0;right=0;fontStyle=1;overflow=hidden;whiteSpace=wrap;html=1;" vertex="1" parent="hQxpPtHJT12RlVAMDk6g-234">
          <mxGeometry width="30.5" height="30" as="geometry">
            <mxRectangle width="30.5" height="30" as="alternateBounds" />
          </mxGeometry>
        </mxCell>
        <mxCell id="hQxpPtHJT12RlVAMDk6g-236" value="DocumentID " style="shape=partialRectangle;connectable=0;fillColor=none;top=0;left=0;bottom=0;right=0;align=left;spacingLeft=6;fontStyle=5;overflow=hidden;whiteSpace=wrap;html=1;" vertex="1" parent="hQxpPtHJT12RlVAMDk6g-234">
          <mxGeometry x="30.5" width="129.16850828729284" height="30" as="geometry">
            <mxRectangle width="129.16850828729284" height="30" as="alternateBounds" />
          </mxGeometry>
        </mxCell>
        <mxCell id="hQxpPtHJT12RlVAMDk6g-237" value="" style="shape=tableRow;horizontal=0;startSize=0;swimlaneHead=0;swimlaneBody=0;fillColor=none;collapsible=0;dropTarget=0;points=[[0,0.5],[1,0.5]];portConstraint=eastwest;top=0;left=0;right=0;bottom=0;" vertex="1" parent="hQxpPtHJT12RlVAMDk6g-233">
          <mxGeometry y="60" width="159.66850828729284" height="20" as="geometry" />
        </mxCell>
        <mxCell id="hQxpPtHJT12RlVAMDk6g-238" value="" style="shape=partialRectangle;connectable=0;fillColor=none;top=0;left=0;bottom=0;right=0;editable=1;overflow=hidden;whiteSpace=wrap;html=1;" vertex="1" parent="hQxpPtHJT12RlVAMDk6g-237">
          <mxGeometry width="30.5" height="20" as="geometry">
            <mxRectangle width="30.5" height="20" as="alternateBounds" />
          </mxGeometry>
        </mxCell>
        <mxCell id="hQxpPtHJT12RlVAMDk6g-239" value="FacilityID " style="shape=partialRectangle;connectable=0;fillColor=none;top=0;left=0;bottom=0;right=0;align=left;spacingLeft=6;overflow=hidden;whiteSpace=wrap;html=1;" vertex="1" parent="hQxpPtHJT12RlVAMDk6g-237">
          <mxGeometry x="30.5" width="129.16850828729284" height="20" as="geometry">
            <mxRectangle width="129.16850828729284" height="20" as="alternateBounds" />
          </mxGeometry>
        </mxCell>
        <mxCell id="hQxpPtHJT12RlVAMDk6g-240" value="" style="shape=tableRow;horizontal=0;startSize=0;swimlaneHead=0;swimlaneBody=0;fillColor=none;collapsible=0;dropTarget=0;points=[[0,0.5],[1,0.5]];portConstraint=eastwest;top=0;left=0;right=0;bottom=0;" vertex="1" parent="hQxpPtHJT12RlVAMDk6g-233">
          <mxGeometry y="80" width="159.66850828729284" height="30" as="geometry" />
        </mxCell>
        <mxCell id="hQxpPtHJT12RlVAMDk6g-241" value="" style="shape=partialRectangle;connectable=0;fillColor=none;top=0;left=0;bottom=0;right=0;editable=1;overflow=hidden;whiteSpace=wrap;html=1;" vertex="1" parent="hQxpPtHJT12RlVAMDk6g-240">
          <mxGeometry width="30.5" height="30" as="geometry">
            <mxRectangle width="30.5" height="30" as="alternateBounds" />
          </mxGeometry>
        </mxCell>
        <mxCell id="hQxpPtHJT12RlVAMDk6g-242" value="Title" style="shape=partialRectangle;connectable=0;fillColor=none;top=0;left=0;bottom=0;right=0;align=left;spacingLeft=6;overflow=hidden;whiteSpace=wrap;html=1;" vertex="1" parent="hQxpPtHJT12RlVAMDk6g-240">
          <mxGeometry x="30.5" width="129.16850828729284" height="30" as="geometry">
            <mxRectangle width="129.16850828729284" height="30" as="alternateBounds" />
          </mxGeometry>
        </mxCell>
        <mxCell id="hQxpPtHJT12RlVAMDk6g-243" value="" style="shape=tableRow;horizontal=0;startSize=0;swimlaneHead=0;swimlaneBody=0;fillColor=none;collapsible=0;dropTarget=0;points=[[0,0.5],[1,0.5]];portConstraint=eastwest;top=0;left=0;right=0;bottom=0;" vertex="1" parent="hQxpPtHJT12RlVAMDk6g-233">
          <mxGeometry y="110" width="159.66850828729284" height="30" as="geometry" />
        </mxCell>
        <mxCell id="hQxpPtHJT12RlVAMDk6g-244" value="" style="shape=partialRectangle;connectable=0;fillColor=none;top=0;left=0;bottom=0;right=0;editable=1;overflow=hidden;whiteSpace=wrap;html=1;" vertex="1" parent="hQxpPtHJT12RlVAMDk6g-243">
          <mxGeometry width="30.5" height="30" as="geometry">
            <mxRectangle width="30.5" height="30" as="alternateBounds" />
          </mxGeometry>
        </mxCell>
        <mxCell id="hQxpPtHJT12RlVAMDk6g-245" value="Type" style="shape=partialRectangle;connectable=0;fillColor=none;top=0;left=0;bottom=0;right=0;align=left;spacingLeft=6;overflow=hidden;whiteSpace=wrap;html=1;" vertex="1" parent="hQxpPtHJT12RlVAMDk6g-243">
          <mxGeometry x="30.5" width="129.16850828729284" height="30" as="geometry">
            <mxRectangle width="129.16850828729284" height="30" as="alternateBounds" />
          </mxGeometry>
        </mxCell>
        <mxCell id="hQxpPtHJT12RlVAMDk6g-246" value="" style="shape=tableRow;horizontal=0;startSize=0;swimlaneHead=0;swimlaneBody=0;fillColor=none;collapsible=0;dropTarget=0;points=[[0,0.5],[1,0.5]];portConstraint=eastwest;top=0;left=0;right=0;bottom=0;" vertex="1" parent="hQxpPtHJT12RlVAMDk6g-232">
          <mxGeometry y="119" width="170" height="25.5" as="geometry" />
        </mxCell>
        <mxCell id="hQxpPtHJT12RlVAMDk6g-247" value="" style="shape=partialRectangle;connectable=0;fillColor=none;top=0;left=0;bottom=0;right=0;editable=1;overflow=hidden;whiteSpace=wrap;html=1;" vertex="1" parent="hQxpPtHJT12RlVAMDk6g-232">
          <mxGeometry x="9.86" y="119" width="30.14" height="25.5" as="geometry">
            <mxRectangle width="30" height="30" as="alternateBounds" />
          </mxGeometry>
        </mxCell>
        <mxCell id="hQxpPtHJT12RlVAMDk6g-248" value="Location" style="shape=partialRectangle;connectable=0;fillColor=none;top=0;left=0;bottom=0;right=0;align=left;spacingLeft=6;overflow=hidden;whiteSpace=wrap;html=1;" vertex="1" parent="hQxpPtHJT12RlVAMDk6g-232">
          <mxGeometry x="29.996408839779008" y="144.5" width="123.03867403314918" height="25.5" as="geometry">
            <mxRectangle width="151" height="30" as="alternateBounds" />
          </mxGeometry>
        </mxCell>
        <mxCell id="hQxpPtHJT12RlVAMDk6g-249" value="" style="endArrow=none;html=1;rounded=0;" edge="1" parent="hQxpPtHJT12RlVAMDk6g-231">
          <mxGeometry width="50" height="50" relative="1" as="geometry">
            <mxPoint x="30" y="170" as="sourcePoint" />
            <mxPoint x="30" y="140" as="targetPoint" />
          </mxGeometry>
        </mxCell>
        <mxCell id="hQxpPtHJT12RlVAMDk6g-266" value="" style="group" vertex="1" connectable="0" parent="1">
          <mxGeometry x="520.17" y="860" width="168.9985082872928" height="170" as="geometry" />
        </mxCell>
        <mxCell id="hQxpPtHJT12RlVAMDk6g-250" value="Report" style="shape=table;startSize=30;container=1;collapsible=1;childLayout=tableLayout;fixedRows=1;rowLines=0;fontStyle=1;align=center;resizeLast=1;html=1;" vertex="1" parent="hQxpPtHJT12RlVAMDk6g-266">
          <mxGeometry width="159.66850828729284" height="170" as="geometry">
            <mxRectangle x="810" y="390" width="70" height="30" as="alternateBounds" />
          </mxGeometry>
        </mxCell>
        <mxCell id="hQxpPtHJT12RlVAMDk6g-251" value="" style="shape=tableRow;horizontal=0;startSize=0;swimlaneHead=0;swimlaneBody=0;fillColor=none;collapsible=0;dropTarget=0;points=[[0,0.5],[1,0.5]];portConstraint=eastwest;top=0;left=0;right=0;bottom=1;" vertex="1" parent="hQxpPtHJT12RlVAMDk6g-250">
          <mxGeometry y="30" width="159.66850828729284" height="30" as="geometry" />
        </mxCell>
        <mxCell id="hQxpPtHJT12RlVAMDk6g-252" value="PK" style="shape=partialRectangle;connectable=0;fillColor=none;top=0;left=0;bottom=0;right=0;fontStyle=1;overflow=hidden;whiteSpace=wrap;html=1;" vertex="1" parent="hQxpPtHJT12RlVAMDk6g-251">
          <mxGeometry width="39.83000000000004" height="30" as="geometry">
            <mxRectangle width="39.83000000000004" height="30" as="alternateBounds" />
          </mxGeometry>
        </mxCell>
        <mxCell id="hQxpPtHJT12RlVAMDk6g-253" value="ReportID " style="shape=partialRectangle;connectable=0;fillColor=none;top=0;left=0;bottom=0;right=0;align=left;spacingLeft=6;fontStyle=5;overflow=hidden;whiteSpace=wrap;html=1;" vertex="1" parent="hQxpPtHJT12RlVAMDk6g-251">
          <mxGeometry x="39.83000000000004" width="119.8385082872928" height="30" as="geometry">
            <mxRectangle width="119.8385082872928" height="30" as="alternateBounds" />
          </mxGeometry>
        </mxCell>
        <mxCell id="hQxpPtHJT12RlVAMDk6g-254" value="" style="shape=tableRow;horizontal=0;startSize=0;swimlaneHead=0;swimlaneBody=0;fillColor=none;collapsible=0;dropTarget=0;points=[[0,0.5],[1,0.5]];portConstraint=eastwest;top=0;left=0;right=0;bottom=0;" vertex="1" parent="hQxpPtHJT12RlVAMDk6g-250">
          <mxGeometry y="60" width="159.66850828729284" height="20" as="geometry" />
        </mxCell>
        <mxCell id="hQxpPtHJT12RlVAMDk6g-255" value="" style="shape=partialRectangle;connectable=0;fillColor=none;top=0;left=0;bottom=0;right=0;editable=1;overflow=hidden;whiteSpace=wrap;html=1;" vertex="1" parent="hQxpPtHJT12RlVAMDk6g-254">
          <mxGeometry width="39.83000000000004" height="20" as="geometry">
            <mxRectangle width="39.83000000000004" height="20" as="alternateBounds" />
          </mxGeometry>
        </mxCell>
        <mxCell id="hQxpPtHJT12RlVAMDk6g-256" value="FacilityID " style="shape=partialRectangle;connectable=0;fillColor=none;top=0;left=0;bottom=0;right=0;align=left;spacingLeft=6;overflow=hidden;whiteSpace=wrap;html=1;" vertex="1" parent="hQxpPtHJT12RlVAMDk6g-254">
          <mxGeometry x="39.83000000000004" width="119.8385082872928" height="20" as="geometry">
            <mxRectangle width="119.8385082872928" height="20" as="alternateBounds" />
          </mxGeometry>
        </mxCell>
        <mxCell id="hQxpPtHJT12RlVAMDk6g-257" value="" style="shape=tableRow;horizontal=0;startSize=0;swimlaneHead=0;swimlaneBody=0;fillColor=none;collapsible=0;dropTarget=0;points=[[0,0.5],[1,0.5]];portConstraint=eastwest;top=0;left=0;right=0;bottom=0;" vertex="1" parent="hQxpPtHJT12RlVAMDk6g-250">
          <mxGeometry y="80" width="159.66850828729284" height="30" as="geometry" />
        </mxCell>
        <mxCell id="hQxpPtHJT12RlVAMDk6g-258" value="" style="shape=partialRectangle;connectable=0;fillColor=none;top=0;left=0;bottom=0;right=0;editable=1;overflow=hidden;whiteSpace=wrap;html=1;" vertex="1" parent="hQxpPtHJT12RlVAMDk6g-257">
          <mxGeometry width="39.83000000000004" height="30" as="geometry">
            <mxRectangle width="39.83000000000004" height="30" as="alternateBounds" />
          </mxGeometry>
        </mxCell>
        <mxCell id="hQxpPtHJT12RlVAMDk6g-259" value="Type" style="shape=partialRectangle;connectable=0;fillColor=none;top=0;left=0;bottom=0;right=0;align=left;spacingLeft=6;overflow=hidden;whiteSpace=wrap;html=1;" vertex="1" parent="hQxpPtHJT12RlVAMDk6g-257">
          <mxGeometry x="39.83000000000004" width="119.8385082872928" height="30" as="geometry">
            <mxRectangle width="119.8385082872928" height="30" as="alternateBounds" />
          </mxGeometry>
        </mxCell>
        <mxCell id="hQxpPtHJT12RlVAMDk6g-260" value="" style="shape=tableRow;horizontal=0;startSize=0;swimlaneHead=0;swimlaneBody=0;fillColor=none;collapsible=0;dropTarget=0;points=[[0,0.5],[1,0.5]];portConstraint=eastwest;top=0;left=0;right=0;bottom=0;" vertex="1" parent="hQxpPtHJT12RlVAMDk6g-250">
          <mxGeometry y="110" width="159.66850828729284" height="30" as="geometry" />
        </mxCell>
        <mxCell id="hQxpPtHJT12RlVAMDk6g-261" value="" style="shape=partialRectangle;connectable=0;fillColor=none;top=0;left=0;bottom=0;right=0;editable=1;overflow=hidden;whiteSpace=wrap;html=1;" vertex="1" parent="hQxpPtHJT12RlVAMDk6g-260">
          <mxGeometry width="39.83000000000004" height="30" as="geometry">
            <mxRectangle width="39.83000000000004" height="30" as="alternateBounds" />
          </mxGeometry>
        </mxCell>
        <mxCell id="hQxpPtHJT12RlVAMDk6g-262" value="Date" style="shape=partialRectangle;connectable=0;fillColor=none;top=0;left=0;bottom=0;right=0;align=left;spacingLeft=6;overflow=hidden;whiteSpace=wrap;html=1;" vertex="1" parent="hQxpPtHJT12RlVAMDk6g-260">
          <mxGeometry x="39.83000000000004" width="119.8385082872928" height="30" as="geometry">
            <mxRectangle width="119.8385082872928" height="30" as="alternateBounds" />
          </mxGeometry>
        </mxCell>
        <mxCell id="hQxpPtHJT12RlVAMDk6g-263" value="Content" style="shape=partialRectangle;connectable=0;fillColor=none;top=0;left=0;bottom=0;right=0;align=left;spacingLeft=6;overflow=hidden;whiteSpace=wrap;html=1;" vertex="1" parent="hQxpPtHJT12RlVAMDk6g-266">
          <mxGeometry x="39.82999999999993" y="140" width="129.16850828729284" height="30" as="geometry">
            <mxRectangle width="129.16850828729284" height="30" as="alternateBounds" />
          </mxGeometry>
        </mxCell>
        <mxCell id="hQxpPtHJT12RlVAMDk6g-264" value="" style="endArrow=none;html=1;rounded=0;" edge="1" parent="hQxpPtHJT12RlVAMDk6g-266">
          <mxGeometry width="50" height="50" relative="1" as="geometry">
            <mxPoint x="39.83000000000004" y="170" as="sourcePoint" />
            <mxPoint x="40.16000000000008" y="140" as="targetPoint" />
          </mxGeometry>
        </mxCell>
        <mxCell id="hQxpPtHJT12RlVAMDk6g-267" value="" style="group" vertex="1" connectable="0" parent="1">
          <mxGeometry x="129.99999999999994" y="1060" width="168.9985082872928" height="170" as="geometry" />
        </mxCell>
        <mxCell id="hQxpPtHJT12RlVAMDk6g-268" value="User" style="shape=table;startSize=30;container=1;collapsible=1;childLayout=tableLayout;fixedRows=1;rowLines=0;fontStyle=1;align=center;resizeLast=1;html=1;" vertex="1" parent="hQxpPtHJT12RlVAMDk6g-267">
          <mxGeometry width="159.66850828729284" height="170" as="geometry">
            <mxRectangle x="810" y="390" width="70" height="30" as="alternateBounds" />
          </mxGeometry>
        </mxCell>
        <mxCell id="hQxpPtHJT12RlVAMDk6g-269" value="" style="shape=tableRow;horizontal=0;startSize=0;swimlaneHead=0;swimlaneBody=0;fillColor=none;collapsible=0;dropTarget=0;points=[[0,0.5],[1,0.5]];portConstraint=eastwest;top=0;left=0;right=0;bottom=1;" vertex="1" parent="hQxpPtHJT12RlVAMDk6g-268">
          <mxGeometry y="30" width="159.66850828729284" height="30" as="geometry" />
        </mxCell>
        <mxCell id="hQxpPtHJT12RlVAMDk6g-270" value="PK" style="shape=partialRectangle;connectable=0;fillColor=none;top=0;left=0;bottom=0;right=0;fontStyle=1;overflow=hidden;whiteSpace=wrap;html=1;" vertex="1" parent="hQxpPtHJT12RlVAMDk6g-269">
          <mxGeometry width="39.83000000000004" height="30" as="geometry">
            <mxRectangle width="39.83000000000004" height="30" as="alternateBounds" />
          </mxGeometry>
        </mxCell>
        <mxCell id="hQxpPtHJT12RlVAMDk6g-271" value="UserID " style="shape=partialRectangle;connectable=0;fillColor=none;top=0;left=0;bottom=0;right=0;align=left;spacingLeft=6;fontStyle=5;overflow=hidden;whiteSpace=wrap;html=1;" vertex="1" parent="hQxpPtHJT12RlVAMDk6g-269">
          <mxGeometry x="39.83000000000004" width="119.8385082872928" height="30" as="geometry">
            <mxRectangle width="119.8385082872928" height="30" as="alternateBounds" />
          </mxGeometry>
        </mxCell>
        <mxCell id="hQxpPtHJT12RlVAMDk6g-272" value="" style="shape=tableRow;horizontal=0;startSize=0;swimlaneHead=0;swimlaneBody=0;fillColor=none;collapsible=0;dropTarget=0;points=[[0,0.5],[1,0.5]];portConstraint=eastwest;top=0;left=0;right=0;bottom=0;" vertex="1" parent="hQxpPtHJT12RlVAMDk6g-268">
          <mxGeometry y="60" width="159.66850828729284" height="20" as="geometry" />
        </mxCell>
        <mxCell id="hQxpPtHJT12RlVAMDk6g-273" value="" style="shape=partialRectangle;connectable=0;fillColor=none;top=0;left=0;bottom=0;right=0;editable=1;overflow=hidden;whiteSpace=wrap;html=1;" vertex="1" parent="hQxpPtHJT12RlVAMDk6g-272">
          <mxGeometry width="39.83000000000004" height="20" as="geometry">
            <mxRectangle width="39.83000000000004" height="20" as="alternateBounds" />
          </mxGeometry>
        </mxCell>
        <mxCell id="hQxpPtHJT12RlVAMDk6g-274" value="UserName" style="shape=partialRectangle;connectable=0;fillColor=none;top=0;left=0;bottom=0;right=0;align=left;spacingLeft=6;overflow=hidden;whiteSpace=wrap;html=1;" vertex="1" parent="hQxpPtHJT12RlVAMDk6g-272">
          <mxGeometry x="39.83000000000004" width="119.8385082872928" height="20" as="geometry">
            <mxRectangle width="119.8385082872928" height="20" as="alternateBounds" />
          </mxGeometry>
        </mxCell>
        <mxCell id="hQxpPtHJT12RlVAMDk6g-275" value="" style="shape=tableRow;horizontal=0;startSize=0;swimlaneHead=0;swimlaneBody=0;fillColor=none;collapsible=0;dropTarget=0;points=[[0,0.5],[1,0.5]];portConstraint=eastwest;top=0;left=0;right=0;bottom=0;" vertex="1" parent="hQxpPtHJT12RlVAMDk6g-268">
          <mxGeometry y="80" width="159.66850828729284" height="30" as="geometry" />
        </mxCell>
        <mxCell id="hQxpPtHJT12RlVAMDk6g-276" value="" style="shape=partialRectangle;connectable=0;fillColor=none;top=0;left=0;bottom=0;right=0;editable=1;overflow=hidden;whiteSpace=wrap;html=1;" vertex="1" parent="hQxpPtHJT12RlVAMDk6g-275">
          <mxGeometry width="39.83000000000004" height="30" as="geometry">
            <mxRectangle width="39.83000000000004" height="30" as="alternateBounds" />
          </mxGeometry>
        </mxCell>
        <mxCell id="hQxpPtHJT12RlVAMDk6g-277" value="Password " style="shape=partialRectangle;connectable=0;fillColor=none;top=0;left=0;bottom=0;right=0;align=left;spacingLeft=6;overflow=hidden;whiteSpace=wrap;html=1;" vertex="1" parent="hQxpPtHJT12RlVAMDk6g-275">
          <mxGeometry x="39.83000000000004" width="119.8385082872928" height="30" as="geometry">
            <mxRectangle width="119.8385082872928" height="30" as="alternateBounds" />
          </mxGeometry>
        </mxCell>
        <mxCell id="hQxpPtHJT12RlVAMDk6g-278" value="" style="shape=tableRow;horizontal=0;startSize=0;swimlaneHead=0;swimlaneBody=0;fillColor=none;collapsible=0;dropTarget=0;points=[[0,0.5],[1,0.5]];portConstraint=eastwest;top=0;left=0;right=0;bottom=0;" vertex="1" parent="hQxpPtHJT12RlVAMDk6g-268">
          <mxGeometry y="110" width="159.66850828729284" height="30" as="geometry" />
        </mxCell>
        <mxCell id="hQxpPtHJT12RlVAMDk6g-279" value="" style="shape=partialRectangle;connectable=0;fillColor=none;top=0;left=0;bottom=0;right=0;editable=1;overflow=hidden;whiteSpace=wrap;html=1;" vertex="1" parent="hQxpPtHJT12RlVAMDk6g-278">
          <mxGeometry width="39.83000000000004" height="30" as="geometry">
            <mxRectangle width="39.83000000000004" height="30" as="alternateBounds" />
          </mxGeometry>
        </mxCell>
        <mxCell id="hQxpPtHJT12RlVAMDk6g-280" value="Role " style="shape=partialRectangle;connectable=0;fillColor=none;top=0;left=0;bottom=0;right=0;align=left;spacingLeft=6;overflow=hidden;whiteSpace=wrap;html=1;" vertex="1" parent="hQxpPtHJT12RlVAMDk6g-278">
          <mxGeometry x="39.83000000000004" width="119.8385082872928" height="30" as="geometry">
            <mxRectangle width="119.8385082872928" height="30" as="alternateBounds" />
          </mxGeometry>
        </mxCell>
        <mxCell id="hQxpPtHJT12RlVAMDk6g-281" value="" style="shape=partialRectangle;connectable=0;fillColor=none;top=0;left=0;bottom=0;right=0;align=left;spacingLeft=6;overflow=hidden;whiteSpace=wrap;html=1;" vertex="1" parent="hQxpPtHJT12RlVAMDk6g-267">
          <mxGeometry x="39.82999999999993" y="140" width="129.16850828729284" height="30" as="geometry">
            <mxRectangle width="129.16850828729284" height="30" as="alternateBounds" />
          </mxGeometry>
        </mxCell>
        <mxCell id="hQxpPtHJT12RlVAMDk6g-282" value="" style="endArrow=none;html=1;rounded=0;" edge="1" parent="hQxpPtHJT12RlVAMDk6g-267">
          <mxGeometry width="50" height="50" relative="1" as="geometry">
            <mxPoint x="39.83000000000004" y="170" as="sourcePoint" />
            <mxPoint x="40.16000000000008" y="140" as="targetPoint" />
          </mxGeometry>
        </mxCell>
        <mxCell id="hQxpPtHJT12RlVAMDk6g-285" value="" style="group" vertex="1" connectable="0" parent="1">
          <mxGeometry x="-310" y="130" width="250" height="210" as="geometry" />
        </mxCell>
        <mxCell id="C-vyLk0tnHw3VtMMgP7b-13" value="Space" style="shape=table;startSize=30;container=1;collapsible=1;childLayout=tableLayout;fixedRows=1;rowLines=0;fontStyle=1;align=center;resizeLast=1;" parent="hQxpPtHJT12RlVAMDk6g-285" vertex="1">
          <mxGeometry width="250" height="210" as="geometry" />
        </mxCell>
        <mxCell id="C-vyLk0tnHw3VtMMgP7b-14" value="" style="shape=partialRectangle;collapsible=0;dropTarget=0;pointerEvents=0;fillColor=none;points=[[0,0.5],[1,0.5]];portConstraint=eastwest;top=0;left=0;right=0;bottom=1;" parent="C-vyLk0tnHw3VtMMgP7b-13" vertex="1">
          <mxGeometry y="30" width="250" height="30" as="geometry" />
        </mxCell>
        <mxCell id="C-vyLk0tnHw3VtMMgP7b-15" value="PK" style="shape=partialRectangle;overflow=hidden;connectable=0;fillColor=none;top=0;left=0;bottom=0;right=0;fontStyle=1;" parent="C-vyLk0tnHw3VtMMgP7b-14" vertex="1">
          <mxGeometry width="30" height="30" as="geometry">
            <mxRectangle width="30" height="30" as="alternateBounds" />
          </mxGeometry>
        </mxCell>
        <mxCell id="C-vyLk0tnHw3VtMMgP7b-16" value="SpaceID" style="shape=partialRectangle;overflow=hidden;connectable=0;fillColor=none;top=0;left=0;bottom=0;right=0;align=left;spacingLeft=6;fontStyle=5;" parent="C-vyLk0tnHw3VtMMgP7b-14" vertex="1">
          <mxGeometry x="30" width="220" height="30" as="geometry">
            <mxRectangle width="220" height="30" as="alternateBounds" />
          </mxGeometry>
        </mxCell>
        <mxCell id="C-vyLk0tnHw3VtMMgP7b-17" value="" style="shape=partialRectangle;collapsible=0;dropTarget=0;pointerEvents=0;fillColor=none;points=[[0,0.5],[1,0.5]];portConstraint=eastwest;top=0;left=0;right=0;bottom=0;" parent="C-vyLk0tnHw3VtMMgP7b-13" vertex="1">
          <mxGeometry y="60" width="250" height="30" as="geometry" />
        </mxCell>
        <mxCell id="C-vyLk0tnHw3VtMMgP7b-18" value="FK1" style="shape=partialRectangle;overflow=hidden;connectable=0;fillColor=none;top=0;left=0;bottom=0;right=0;" parent="C-vyLk0tnHw3VtMMgP7b-17" vertex="1">
          <mxGeometry width="30" height="30" as="geometry">
            <mxRectangle width="30" height="30" as="alternateBounds" />
          </mxGeometry>
        </mxCell>
        <mxCell id="C-vyLk0tnHw3VtMMgP7b-19" value="FacilityID" style="shape=partialRectangle;overflow=hidden;connectable=0;fillColor=none;top=0;left=0;bottom=0;right=0;align=left;spacingLeft=6;" parent="C-vyLk0tnHw3VtMMgP7b-17" vertex="1">
          <mxGeometry x="30" width="220" height="30" as="geometry">
            <mxRectangle width="220" height="30" as="alternateBounds" />
          </mxGeometry>
        </mxCell>
        <mxCell id="C-vyLk0tnHw3VtMMgP7b-20" value="" style="shape=partialRectangle;collapsible=0;dropTarget=0;pointerEvents=0;fillColor=none;points=[[0,0.5],[1,0.5]];portConstraint=eastwest;top=0;left=0;right=0;bottom=0;" parent="C-vyLk0tnHw3VtMMgP7b-13" vertex="1">
          <mxGeometry y="90" width="250" height="30" as="geometry" />
        </mxCell>
        <mxCell id="C-vyLk0tnHw3VtMMgP7b-21" value="" style="shape=partialRectangle;overflow=hidden;connectable=0;fillColor=none;top=0;left=0;bottom=0;right=0;" parent="C-vyLk0tnHw3VtMMgP7b-20" vertex="1">
          <mxGeometry width="30" height="30" as="geometry">
            <mxRectangle width="30" height="30" as="alternateBounds" />
          </mxGeometry>
        </mxCell>
        <mxCell id="C-vyLk0tnHw3VtMMgP7b-22" value="Type" style="shape=partialRectangle;overflow=hidden;connectable=0;fillColor=none;top=0;left=0;bottom=0;right=0;align=left;spacingLeft=6;" parent="C-vyLk0tnHw3VtMMgP7b-20" vertex="1">
          <mxGeometry x="30" width="220" height="30" as="geometry">
            <mxRectangle width="220" height="30" as="alternateBounds" />
          </mxGeometry>
        </mxCell>
        <mxCell id="hQxpPtHJT12RlVAMDk6g-13" value="" style="shape=partialRectangle;collapsible=0;dropTarget=0;pointerEvents=0;fillColor=none;points=[[0,0.5],[1,0.5]];portConstraint=eastwest;top=0;left=0;right=0;bottom=0;" vertex="1" parent="hQxpPtHJT12RlVAMDk6g-285">
          <mxGeometry y="120" width="250" height="30" as="geometry" />
        </mxCell>
        <mxCell id="hQxpPtHJT12RlVAMDk6g-14" value="" style="shape=partialRectangle;overflow=hidden;connectable=0;fillColor=none;top=0;left=0;bottom=0;right=0;" vertex="1" parent="hQxpPtHJT12RlVAMDk6g-13">
          <mxGeometry width="30" height="30" as="geometry">
            <mxRectangle width="30" height="30" as="alternateBounds" />
          </mxGeometry>
        </mxCell>
        <mxCell id="hQxpPtHJT12RlVAMDk6g-15" value="Area" style="shape=partialRectangle;overflow=hidden;connectable=0;fillColor=none;top=0;left=0;bottom=0;right=0;align=left;spacingLeft=6;" vertex="1" parent="hQxpPtHJT12RlVAMDk6g-13">
          <mxGeometry x="30" width="220" height="30" as="geometry">
            <mxRectangle width="220" height="30" as="alternateBounds" />
          </mxGeometry>
        </mxCell>
        <mxCell id="hQxpPtHJT12RlVAMDk6g-16" value="" style="shape=partialRectangle;collapsible=0;dropTarget=0;pointerEvents=0;fillColor=none;points=[[0,0.5],[1,0.5]];portConstraint=eastwest;top=0;left=0;right=0;bottom=0;" vertex="1" parent="hQxpPtHJT12RlVAMDk6g-285">
          <mxGeometry y="150" width="250" height="30" as="geometry" />
        </mxCell>
        <mxCell id="hQxpPtHJT12RlVAMDk6g-17" value="" style="shape=partialRectangle;overflow=hidden;connectable=0;fillColor=none;top=0;left=0;bottom=0;right=0;" vertex="1" parent="hQxpPtHJT12RlVAMDk6g-16">
          <mxGeometry width="30" height="30" as="geometry">
            <mxRectangle width="30" height="30" as="alternateBounds" />
          </mxGeometry>
        </mxCell>
        <mxCell id="hQxpPtHJT12RlVAMDk6g-18" value="Type" style="shape=partialRectangle;overflow=hidden;connectable=0;fillColor=none;top=0;left=0;bottom=0;right=0;align=left;spacingLeft=6;" vertex="1" parent="hQxpPtHJT12RlVAMDk6g-16">
          <mxGeometry x="30" width="220" height="30" as="geometry">
            <mxRectangle width="220" height="30" as="alternateBounds" />
          </mxGeometry>
        </mxCell>
        <mxCell id="hQxpPtHJT12RlVAMDk6g-19" value="" style="shape=partialRectangle;collapsible=0;dropTarget=0;pointerEvents=0;fillColor=none;points=[[0,0.5],[1,0.5]];portConstraint=eastwest;top=0;left=0;right=0;bottom=0;" vertex="1" parent="hQxpPtHJT12RlVAMDk6g-285">
          <mxGeometry y="180" width="250" height="30" as="geometry" />
        </mxCell>
        <mxCell id="hQxpPtHJT12RlVAMDk6g-20" value="" style="shape=partialRectangle;overflow=hidden;connectable=0;fillColor=none;top=0;left=0;bottom=0;right=0;" vertex="1" parent="hQxpPtHJT12RlVAMDk6g-19">
          <mxGeometry width="30" height="30" as="geometry">
            <mxRectangle width="30" height="30" as="alternateBounds" />
          </mxGeometry>
        </mxCell>
        <mxCell id="hQxpPtHJT12RlVAMDk6g-21" value="OccupancyStatus" style="shape=partialRectangle;overflow=hidden;connectable=0;fillColor=none;top=0;left=0;bottom=0;right=0;align=left;spacingLeft=6;" vertex="1" parent="hQxpPtHJT12RlVAMDk6g-19">
          <mxGeometry x="30" width="220" height="30" as="geometry">
            <mxRectangle width="220" height="30" as="alternateBounds" />
          </mxGeometry>
        </mxCell>
        <mxCell id="hQxpPtHJT12RlVAMDk6g-22" value="" style="endArrow=none;html=1;rounded=0;" edge="1" parent="hQxpPtHJT12RlVAMDk6g-285">
          <mxGeometry width="50" height="50" relative="1" as="geometry">
            <mxPoint x="30" y="210" as="sourcePoint" />
            <mxPoint x="30" y="120" as="targetPoint" />
          </mxGeometry>
        </mxCell>
        <mxCell id="hQxpPtHJT12RlVAMDk6g-304" value="" style="endArrow=ERmandOne;html=1;entryX=0.002;entryY=0.203;entryDx=0;entryDy=0;rounded=1;startArrow=ERoneToMany;startFill=0;endFill=0;exitX=1;exitY=0.5;exitDx=0;exitDy=0;entryPerimeter=0;" edge="1" parent="1" source="C-vyLk0tnHw3VtMMgP7b-17" target="C-vyLk0tnHw3VtMMgP7b-24">
          <mxGeometry relative="1" as="geometry">
            <mxPoint x="-50" y="200" as="sourcePoint" />
            <mxPoint x="100" y="200" as="targetPoint" />
            <Array as="points">
              <mxPoint x="-10" y="205" />
              <mxPoint x="30" y="160" />
              <mxPoint x="70" y="160" />
              <mxPoint x="90" y="160" />
            </Array>
          </mxGeometry>
        </mxCell>
        <mxCell id="hQxpPtHJT12RlVAMDk6g-305" value="" style="endArrow=ERmandOne;html=1;rounded=1;exitX=1;exitY=0.5;exitDx=0;exitDy=0;startArrow=ERmandOne;startFill=0;endFill=0;" edge="1" parent="1" source="C-vyLk0tnHw3VtMMgP7b-3">
          <mxGeometry relative="1" as="geometry">
            <mxPoint x="670" y="194.44" as="sourcePoint" />
            <mxPoint x="820" y="190" as="targetPoint" />
            <Array as="points">
              <mxPoint x="760" y="165" />
              <mxPoint x="760" y="190" />
            </Array>
          </mxGeometry>
        </mxCell>
        <mxCell id="hQxpPtHJT12RlVAMDk6g-309" value="" style="endArrow=none;html=1;rounded=1;exitX=-0.003;exitY=0.398;exitDx=0;exitDy=0;exitPerimeter=0;entryX=0;entryY=0.342;entryDx=0;entryDy=0;entryPerimeter=0;" edge="1" parent="1" source="C-vyLk0tnHw3VtMMgP7b-24" target="hQxpPtHJT12RlVAMDk6g-52">
          <mxGeometry relative="1" as="geometry">
            <mxPoint x="120.00000000000006" y="189.70000000000005" as="sourcePoint" />
            <mxPoint x="106.56" y="440.3" as="targetPoint" />
            <Array as="points">
              <mxPoint x="110" y="170" />
              <mxPoint x="100" y="170" />
              <mxPoint x="90" y="170" />
              <mxPoint x="70" y="170" />
              <mxPoint x="62" y="170" />
              <mxPoint x="61.56" y="190.3" />
              <mxPoint x="61.56" y="290.3" />
              <mxPoint x="60" y="430" />
            </Array>
          </mxGeometry>
        </mxCell>
        <mxCell id="hQxpPtHJT12RlVAMDk6g-310" value="Name" style="shape=partialRectangle;overflow=hidden;connectable=0;fillColor=none;top=0;left=0;bottom=0;right=0;align=left;spacingLeft=6;" vertex="1" parent="1">
          <mxGeometry x="150" y="195" width="220" height="30" as="geometry">
            <mxRectangle width="220" height="30" as="alternateBounds" />
          </mxGeometry>
        </mxCell>
      </root>
    </mxGraphModel>
  </diagram>
</mxfile>
